<?xml version="1.0" encoding="utf-8"?>
<!-- Generator: Adobe Illustrator 22.0.1, SVG Export Plug-In . SVG Version: 6.00 Build 0)  -->
<svg version="1.1" id="Capa_1" xmlns="http://www.w3.org/2000/svg" xmlns:xlink="http://www.w3.org/1999/xlink" x="0px" y="0px"
	 width="900px" height="900px" viewBox="0 0 900 900" style="enable-background:new 0 0 900 900;" xml:space="preserve">
<style type="text/css">
	.st0{fill:#FFFFFF;}
	.st1{opacity:0.7;fill:#1B3A53;}
	.st2{opacity:0.7;fill:#B98C3D;}
	.st3{opacity:0.7;fill:#463D2C;}
	.st4{opacity:0.7;fill:#1669AC;}
	.st5{fill:#1B3A53;}
	.st6{fill:#B98C3D;}
	.st7{fill:#463D2C;}
	.st8{fill:#1669AC;}
	.st9{font-family:'ArialMT';}
	.st10{font-size:10px;}
</style>
<rect id="backgorund" class="st0" width="900" height="900"/>
<g id="viz" transform="translate(450,450)">
	<path class="st1" d="M1-291.3C161.9-290.8,291.9-159.9,291.3,1c-0.1,40.3-8.6,80-24.9,116.9l-132.1-59
		c32.5-74.2-1.3-160.7-75.5-193.2c-18.3-8-37.9-12.2-57.9-12.3V-291.3z	">
<title>Modern orchestra</title>
	</path>
	<path class="st2" d="M265.6,119.7C199.5,266.4,27,331.7-119.7,265.6c-3.5-1.6-7-3.2-10.5-5l65.1-129.2
		c72.6,35.9,160.6,6.2,196.5-66.4c0.7-1.4,1.4-2.9,2.1-4.4L265.6,119.7z	">
<title>Early Romantic orchestra</title>
	</path>
	<path class="st3" d="M-131.9,259.7c-143.5-72.9-200.7-248.2-127.8-391.7c15.5-30.5,36.2-58,61.2-81.2l98.2,106.2
		c-59.1,55.4-62.1,148.2-6.6,207.3c11.5,12.3,25.1,22.5,40.1,30.2L-131.9,259.7z	">
<title>Late Romantic orchestra</title>
	</path>
	<path class="st4" d="M-197.1-214.5c53.5-49.2,123.4-76.5,196.1-76.8v144.7c-36.2,0.2-71.1,13.9-97.9,38.3L-197.1-214.5z	">
<title>Classical orchestra</title>
	</path>
	<path class="st5" d="M1-438c8.4,0,16.8,0.3,25.2,0.8l-9,144.4c-5.4-0.3-10.8-0.5-16.2-0.5V-438z	">
<title>Baritone horn</title>
	</path>
	<path class="st5" d="M28.2-437.1c8.4,0.5,16.8,1.3,25.1,2.4l-18,143.5c-5.4-0.7-10.8-1.2-16.2-1.5L28.2-437.1z	">
<title>Bass Drum</title>
	</path>
	<path class="st5" d="M55.3-434.5c8.3,1.1,16.7,2.4,24.9,3.9L53.4-288.4c-5.3-1-10.7-1.8-16.1-2.5L55.3-434.5z	">
<title>Bassoons</title>
	</path>
	<path class="st5" d="M82.3-430.2c8.3,1.6,16.5,3.4,24.6,5.5L71.3-284.5c-5.3-1.3-10.5-2.5-15.9-3.5L82.3-430.2z	">
<title>Celesta</title>
	</path>
	<path class="st5" d="M108.8-424.3c8.2,2.1,16.2,4.4,24.3,7L88.8-279.6c-5.2-1.6-10.4-3.1-15.6-4.5L108.8-424.3z	">
<title>Cellos</title>
	</path>
	<path class="st5" d="M135-416.7c8,2.6,15.9,5.4,23.8,8.5L106-273.5c-5.1-2-10.2-3.8-15.3-5.5L135-416.7z	">
<title>Clarinets</title>
	</path>
	<path class="st5" d="M160.6-407.5c7.8,3.1,15.6,6.4,23.2,9.9l-61,131.2c-4.9-2.3-9.9-4.4-14.9-6.4L160.6-407.5z	">
<title>Cymbals</title>
	</path>
	<path class="st5" d="M185.7-396.7c7.6,3.6,15.1,7.4,22.5,11.4l-69.1,127.1c-4.8-2.6-9.6-5-14.5-7.3L185.7-396.7z	">
<title>Double basses</title>
	</path>
	<path class="st5" d="M210-384.4c7.4,4,14.7,8.3,21.8,12.7l-76.8,122.6c-4.6-2.9-9.3-5.6-14-8.2L210-384.4z	">
<title>Flutes</title>
	</path>
	<path class="st5" d="M233.5-370.6c7.1,4.5,14.1,9.2,21,14.1L170.1-239c-4.4-3.1-8.9-6.2-13.5-9.1L233.5-370.6z	">
<title>French Horns</title>
	</path>
	<path class="st5" d="M256.1-355.4c6.8,4.9,13.5,10,20,15.3l-91.4,112.1c-4.2-3.4-8.5-6.7-12.9-9.9L256.1-355.4z	">
<title>Glockenspiel</title>
	</path>
	<path class="st5" d="M277.6-338.8c6.5,5.3,12.9,10.9,19.1,16.6L198.5-216c-4-3.7-8.1-7.2-12.3-10.7L277.6-338.8z	">
<title>Harps</title>
	</path>
	<path class="st5" d="M298.2-320.8c6.2,5.7,12.2,11.6,18,17.7l-104.7,99.9c-3.8-3.9-7.6-7.7-11.6-11.4L298.2-320.8z	">
<title>Marimba</title>
	</path>
	<path class="st5" d="M317.5-301.7c5.8,6.1,11.4,12.4,16.9,18.8l-110.7,93.2c-3.5-4.1-7.1-8.2-10.8-12.1L317.5-301.7z	">
<title>Oboes</title>
	</path>
	<path class="st5" d="M335.7-281.4c5.4,6.5,10.6,13.1,15.7,19.8l-116.2,86.1c-3.2-4.3-6.6-8.6-10.1-12.7L335.7-281.4z	">
<title>Piano</title>
	</path>
	<path class="st5" d="M352.5-259.9c5,6.8,9.8,13.7,14.4,20.7l-121.4,78.7c-3-4.5-6.1-9-9.3-13.3L352.5-259.9z	">
<title>Pipe organ</title>
	</path>
	<path class="st5" d="M368-237.5c4.6,7.1,8.9,14.3,13.1,21.6l-126,71c-2.7-4.7-5.5-9.3-8.4-13.9L368-237.5z	">
<title>Snare Drum</title>
	</path>
	<path class="st5" d="M382.1-214.2c4.1,7.3,8,14.8,11.7,22.4l-130.2,63.1c-2.4-4.9-4.9-9.7-7.5-14.4L382.1-214.2z	">
<title>Tam-tam</title>
	</path>
	<path class="st5" d="M394.6-190c3.7,7.6,7.1,15.3,10.3,23.1l-133.9,54.8c-2.1-5-4.3-10-6.6-14.8L394.6-190z	">
<title>Tambourine</title>
	</path>
	<path class="st5" d="M405.7-165.1c3.2,7.8,6.1,15.7,8.8,23.6l-137,46.4c-1.8-5.1-3.7-10.2-5.7-15.2L405.7-165.1z	">
<title>Tenor drum</title>
	</path>
	<path class="st5" d="M415.2-139.6c2.7,8,5.1,16,7.4,24.2L282.9-77.6c-1.4-5.2-3-10.4-4.7-15.5L415.2-139.6z	">
<title>Timpani</title>
	</path>
	<path class="st5" d="M423-113.5c2.2,8.1,4.1,16.3,5.8,24.6L287.2-59.9c-1.1-5.3-2.4-10.6-3.8-15.8L423-113.5z	">
<title>Triangle</title>
	</path>
	<path class="st5" d="M429.3-87c1.7,8.2,3.1,16.5,4.3,24.9L290.3-41.9c-0.8-5.4-1.7-10.7-2.8-16L429.3-87z	">
<title>Trombones</title>
	</path>
	<path class="st5" d="M433.9-60.1c1.2,8.3,2.1,16.7,2.7,25.1L292.4-23.8c-0.4-5.4-1-10.8-1.8-16.1L433.9-60.1z	">
<title>Trumpets</title>
	</path>
	<path class="st5" d="M436.8-33c0.6,8.4,1,16.8,1.2,25.2L293.3-5.6c-0.1-5.4-0.4-10.8-0.8-16.2L436.8-33z	">
<title>Tubas</title>
	</path>
	<path class="st5" d="M438-5.8c0.1,8.4,0,16.8-0.4,25.2l-144.5-6.7c0.2-5.4,0.3-10.8,0.3-16.2L438-5.8z	">
<title>Tubular bells</title>
	</path>
	<path class="st5" d="M437.5,21.4c-0.4,8.4-1.1,16.8-2,25.2L291.7,30.9c0.6-5.4,1-10.8,1.3-16.2L437.5,21.4z	">
<title>Vibraphone</title>
	</path>
	<path class="st5" d="M435.3,48.6c-0.9,8.4-2.1,16.7-3.5,25L289.2,49c0.9-5.3,1.7-10.7,2.3-16.1L435.3,48.6z	">
<title>Violas</title>
	</path>
	<path class="st5" d="M431.4,75.6c-1.5,8.3-3.1,16.5-5.1,24.7L285.6,66.8c1.2-5.3,2.3-10.6,3.3-15.9L431.4,75.6z	">
<title>Violins 1</title>
	</path>
	<path class="st5" d="M425.9,102.2c-2,8.2-4.2,16.3-6.6,24.4L280.9,84.5c1.6-5.2,3-10.4,4.2-15.7L425.9,102.2z	">
<title>Violins 2</title>
	</path>
	<path class="st5" d="M418.7,128.5c-2.5,8-5.2,16-8.1,23.9l-135.5-50.7c1.9-5.1,3.6-10.2,5.2-15.4L418.7,128.5z	">
<title>Wood block</title>
	</path>
	<path class="st5" d="M409.9,154.3c-3,7.9-6.2,15.7-9.6,23.4l-132.1-59c2.2-5,4.2-10,6.2-15L409.9,154.3z	">
<title>Xylophone</title>
	</path>
	<path class="st6" d="M399.5,179.5c-3.4,7.7-7.1,15.3-11,22.7l-128.2-67.1c2.5-4.8,4.9-9.7,7.1-14.6L399.5,179.5z	">
<title>Bass Clarinet</title>
	</path>
	<path class="st6" d="M387.6,204c-3.9,7.4-8.1,14.8-12.4,22L251.5,151c2.8-4.6,5.4-9.4,8-14.2L387.6,204z	">
<title>Bass Drum</title>
	</path>
	<path class="st6" d="M374.2,227.7c-4.4,7.2-9,14.3-13.7,21.2l-118.9-82.5c3.1-4.5,6-9,8.8-13.6L374.2,227.7z	">
<title>Bassoons</title>
	</path>
	<path class="st6" d="M359.3,250.5c-4.8,6.9-9.8,13.7-15,20.3l-113.5-89.7c3.3-4.3,6.6-8.6,9.7-13.1L359.3,250.5z	">
<title>Cellos</title>
	</path>
	<path class="st6" d="M343,272.3c-5.2,6.6-10.7,13-16.3,19.3l-107.7-96.6c3.6-4,7.1-8.2,10.5-12.4L343,272.3z	">
<title>Clarinets</title>
	</path>
	<path class="st6" d="M325.4,293.1c-5.6,6.3-11.4,12.3-17.4,18.3L206.5,208.3c3.8-3.8,7.6-7.7,11.2-11.8L325.4,293.1z	">
<title>Contrabassoon</title>
	</path>
	<path class="st6" d="M306.6,312.8c-6,5.9-12.2,11.6-18.5,17.1l-94.9-109.2c4.1-3.6,8.1-7.2,11.9-11L306.6,312.8z	">
<title>Cornet</title>
	</path>
	<path class="st6" d="M286.5,331.3c-6.4,5.5-12.9,10.8-19.6,16l-87.9-114.9c4.3-3.3,8.5-6.7,12.6-10.3L286.5,331.3z	">
<title>Cymbals</title>
	</path>
	<path class="st6" d="M265.4,348.4c-6.7,5.1-13.5,10-20.5,14.7L164.3,243c4.5-3,8.9-6.2,13.2-9.5L265.4,348.4z	">
<title>Double basses</title>
	</path>
	<path class="st6" d="M243.2,364.3c-7,4.7-14.1,9.1-21.4,13.4l-73-124.9c4.7-2.7,9.3-5.6,13.8-8.6L243.2,364.3z	">
<title>English Horn</title>
	</path>
	<path class="st6" d="M220.1,378.7c-7.3,4.2-14.7,8.2-22.2,12.1l-65.1-129.2c4.8-2.5,9.6-5,14.3-7.8L220.1,378.7z	">
<title>Flutes</title>
	</path>
	<path class="st6" d="M196.1,391.6c-7.5,3.8-15.2,7.3-22.9,10.6l-56.9-133c5-2.1,9.9-4.4,14.7-6.9L196.1,391.6z	">
<title>French Horns</title>
	</path>
	<path class="st6" d="M171.4,403.1c-7.7,3.3-15.6,6.4-23.5,9.2L99.4,276c5.1-1.8,10.1-3.8,15.1-5.9L171.4,403.1z	">
<title>Glockenspiel</title>
	</path>
	<path class="st6" d="M146,412.9c-7.9,2.8-15.9,5.4-24,7.7l-40-139c5.2-1.5,10.4-3.2,15.5-5L146,412.9z	">
<title>Harps</title>
	</path>
	<path class="st6" d="M120.1,421.2c-8.1,2.3-16.3,4.4-24.5,6.2L64.3,286.2c5.3-1.2,10.5-2.5,15.7-4L120.1,421.2z	">
<title>Oboes</title>
	</path>
	<path class="st6" d="M93.6,427.9c-8.2,1.8-16.5,3.4-24.8,4.7L46.4,289.6c5.3-0.9,10.7-1.9,16-3L93.6,427.9z	">
<title>Piccolo</title>
	</path>
	<path class="st6" d="M66.9,432.9c-8.3,1.3-16.7,2.3-25,3.1L28.3,292c5.4-0.5,10.8-1.2,16.1-2L66.9,432.9z	">
<title>Snare Drum</title>
	</path>
	<path class="st6" d="M39.8,436.2c-8.4,0.8-16.8,1.3-25.2,1.6l-4.5-144.6c5.4-0.2,10.8-0.5,16.2-1L39.8,436.2z	">
<title>Tambourine</title>
	</path>
	<path class="st6" d="M12.6,437.8c-8.4,0.2-16.8,0.2-25.2,0l4.5-144.6c5.4,0.1,10.8,0.1,16.2,0L12.6,437.8z	">
<title>Timpani</title>
	</path>
	<path class="st6" d="M-14.6,437.8c-8.4-0.3-16.8-0.8-25.2-1.6l13.5-144c5.4,0.5,10.8,0.8,16.2,1L-14.6,437.8z	">
<title>Triangle</title>
	</path>
	<path class="st6" d="M-41.8,436c-8.4-0.8-16.7-1.8-25-3.1l22.4-142.9c5.4,0.8,10.7,1.5,16.1,2L-41.8,436z	">
<title>Trombones</title>
	</path>
	<path class="st6" d="M-68.8,432.6c-8.3-1.3-16.6-2.9-24.8-4.7l31.3-141.3c5.3,1.2,10.6,2.2,16,3L-68.8,432.6z	">
<title>Trumpets</title>
	</path>
	<path class="st6" d="M-95.6,427.4c-8.2-1.8-16.4-3.9-24.5-6.2l40-139c5.2,1.5,10.5,2.8,15.7,4L-95.6,427.4z	">
<title>Tubas</title>
	</path>
	<path class="st6" d="M-122,420.7c-8.1-2.3-16.1-4.9-24-7.7l48.5-136.3c5.1,1.8,10.3,3.5,15.5,5L-122,420.7z	">
<title>Violas</title>
	</path>
	<path class="st6" d="M-147.9,412.3c-7.9-2.8-15.8-5.9-23.5-9.2l56.9-133c5,2.1,10,4.1,15.1,5.9L-147.9,412.3z	">
<title>Violins 1</title>
	</path>
	<path class="st6" d="M-173.2,402.3c-7.7-3.3-15.4-6.9-22.9-10.6l65.1-129.2c4.8,2.4,9.8,4.7,14.7,6.9L-173.2,402.3z	">
<title>Violins 2</title>
	</path>
	<path class="st7" d="M-197.9,390.7c-7.5-3.8-14.9-7.8-22.2-12.1l73-124.9c4.7,2.7,9.4,5.3,14.3,7.8L-197.9,390.7z	">
<title>Bass Clarinet</title>
	</path>
	<path class="st7" d="M-221.8,377.7c-7.3-4.3-14.4-8.7-21.4-13.4l80.6-120.1c4.5,3,9.1,5.9,13.8,8.6L-221.8,377.7z	">
<title>Bass Drum</title>
	</path>
	<path class="st7" d="M-244.9,363.2c-7-4.7-13.8-9.6-20.5-14.7l87.9-114.9c4.3,3.3,8.7,6.4,13.2,9.5L-244.9,363.2z	">
<title>Bassoons</title>
	</path>
	<path class="st7" d="M-267,347.2c-6.7-5.1-13.2-10.5-19.6-16l94.9-109.2c4.1,3.5,8.3,7,12.6,10.3L-267,347.2z	">
<title>Celesta</title>
	</path>
	<path class="st7" d="M-288.1,330c-6.3-5.5-12.5-11.3-18.5-17.1l101.5-103.1c3.9,3.8,7.8,7.5,11.9,11L-288.1,330z	">
<title>Cellos</title>
	</path>
	<path class="st7" d="M-308,311.4c-6-5.9-11.8-12-17.4-18.3l107.7-96.6c3.6,4,7.4,7.9,11.2,11.8L-308,311.4z	">
<title>Chimes</title>
	</path>
	<path class="st7" d="M-326.8,291.7c-5.6-6.3-11-12.7-16.3-19.3l113.5-89.7c3.4,4.2,6.9,8.4,10.5,12.4L-326.8,291.7z	">
<title>Clarinets</title>
	</path>
	<path class="st7" d="M-344.3,270.8c-5.2-6.6-10.2-13.4-15-20.3l118.9-82.5c3.1,4.4,6.3,8.8,9.7,13.1L-344.3,270.8z	">
<title>Contrabassoon</title>
	</path>
	<path class="st7" d="M-360.4,248.9c-4.8-6.9-9.4-14-13.7-21.2l123.8-74.9c2.8,4.6,5.8,9.2,8.8,13.6L-360.4,248.9z	">
<title>Cymbals</title>
	</path>
	<path class="st7" d="M-375.2,226c-4.3-7.2-8.5-14.5-12.4-22l128.2-67.1c2.5,4.8,5.2,9.5,8,14.2L-375.2,226z	">
<title>Double basses</title>
	</path>
	<path class="st7" d="M-388.5,202.2c-3.9-7.5-7.6-15-11-22.7l132.1-59c2.2,4.9,4.6,9.8,7.1,14.6L-388.5,202.2z	">
<title>English Horn</title>
	</path>
	<path class="st7" d="M-400.4,177.7c-3.4-7.7-6.6-15.5-9.6-23.4l135.5-50.7c1.9,5.1,4,10.1,6.2,15L-400.4,177.7z	">
<title>Flutes</title>
	</path>
	<path class="st7" d="M-410.6,152.4c-2.9-7.9-5.6-15.9-8.1-23.9l138.4-42.1c1.6,5.2,3.3,10.3,5.2,15.4L-410.6,152.4z	">
<title>French Horns</title>
	</path>
	<path class="st7" d="M-419.3,126.6c-2.4-8.1-4.6-16.2-6.6-24.4l140.7-33.4c1.3,5.3,2.7,10.5,4.2,15.7L-419.3,126.6z	">
<title>Glockenspiel</title>
	</path>
	<path class="st7" d="M-426.4,100.3c-1.9-8.2-3.6-16.4-5.1-24.7l142.6-24.6c0.9,5.3,2,10.6,3.3,15.9L-426.4,100.3z	">
<title>Harps</title>
	</path>
	<path class="st7" d="M-431.8,73.6c-1.4-8.3-2.6-16.6-3.5-25l143.8-15.7c0.6,5.4,1.4,10.7,2.3,16.1L-431.8,73.6z	">
<title>Oboes</title>
	</path>
	<path class="st7" d="M-435.5,46.6c-0.9-8.4-1.5-16.8-2-25.2l144.5-6.7c0.3,5.4,0.7,10.8,1.3,16.2L-435.5,46.6z	">
<title>Piano</title>
	</path>
	<path class="st7" d="M-437.6,19.4c-0.4-8.4-0.5-16.8-0.4-25.2l144.6,2.2c-0.1,5.4,0,10.8,0.3,16.2L-437.6,19.4z	">
<title>Piccolo</title>
	</path>
	<path class="st7" d="M-437.9-7.8c0.2-8.4,0.5-16.8,1.2-25.2l144.2,11.2c-0.4,5.4-0.7,10.8-0.8,16.2L-437.9-7.8z	">
<title>Snare Drum</title>
	</path>
	<path class="st7" d="M-436.6-35c0.7-8.4,1.6-16.8,2.7-25.1l143.3,20.2c-0.7,5.4-1.3,10.8-1.8,16.1L-436.6-35z	">
<title>Tam-tam</title>
	</path>
	<path class="st7" d="M-433.6-62.1c1.2-8.3,2.6-16.6,4.3-24.9l141.7,29.1c-1.1,5.3-2,10.6-2.8,16L-433.6-62.1z	">
<title>Tambourine</title>
	</path>
	<path class="st7" d="M-428.9-88.9c1.7-8.2,3.7-16.4,5.8-24.6l139.6,37.8c-1.4,5.2-2.6,10.5-3.8,15.8L-428.9-88.9z	">
<title>Timpani</title>
	</path>
	<path class="st7" d="M-422.5-115.4c2.2-8.1,4.7-16.2,7.4-24.2l137,46.4c-1.7,5.1-3.3,10.3-4.7,15.5L-422.5-115.4z	">
<title>Triangle</title>
	</path>
	<path class="st7" d="M-414.5-141.5c2.7-8,5.7-15.9,8.8-23.6l133.9,54.8c-2,5-3.9,10.1-5.7,15.2L-414.5-141.5z	">
<title>Trombones</title>
	</path>
	<path class="st7" d="M-404.9-167c3.2-7.8,6.6-15.5,10.3-23.1l130.2,63.1c-2.3,4.9-4.6,9.8-6.6,14.8L-404.9-167z	">
<title>Trumpets</title>
	</path>
	<path class="st7" d="M-393.8-191.8c3.7-7.6,7.6-15,11.7-22.4l126,71c-2.6,4.7-5.2,9.5-7.5,14.4L-393.8-191.8z	">
<title>Tubas</title>
	</path>
	<path class="st7" d="M-381.1-215.9c4.1-7.3,8.5-14.5,13.1-21.6l121.4,78.7c-2.9,4.6-5.7,9.2-8.4,13.9L-381.1-215.9z	">
<title>Violas</title>
	</path>
	<path class="st7" d="M-366.9-239.2c4.6-7.1,9.4-14,14.4-20.7l116.2,86.1c-3.2,4.4-6.3,8.8-9.3,13.3L-366.9-239.2z	">
<title>Violins 1</title>
	</path>
	<path class="st7" d="M-351.3-261.5c5-6.8,10.2-13.4,15.7-19.8l110.7,93.2c-3.5,4.2-6.8,8.4-10.1,12.7L-351.3-261.5z	">
<title>Violins 2</title>
	</path>
	<path class="st7" d="M-334.4-282.9c5.4-6.4,11.1-12.7,16.9-18.8l104.7,99.9c-3.7,3.9-7.3,8-10.8,12.1L-334.4-282.9z	">
<title>Wagner Tuba</title>
	</path>
	<path class="st7" d="M-316.2-303.1c5.8-6.1,11.8-12,18-17.7l98.2,106.2c-4,3.7-7.8,7.5-11.6,11.4L-316.2-303.1z	">
<title>Xylophone</title>
	</path>
	<path class="st8" d="M-296.7-322.2c6.2-5.7,12.5-11.2,19.1-16.6l91.4,112.1c-4.2,3.4-8.3,7-12.3,10.7L-296.7-322.2z	">
<title>Bassoons</title>
	</path>
	<path class="st8" d="M-276.1-340c6.5-5.3,13.2-10.4,20-15.3l84.3,117.6c-4.4,3.2-8.7,6.5-12.9,9.9L-276.1-340z	">
<title>Cellos</title>
	</path>
	<path class="st8" d="M-254.4-356.5c6.9-4.9,13.8-9.6,21-14.1l76.8,122.6c-4.6,2.9-9.1,5.9-13.5,9.1L-254.4-356.5z	">
<title>Clarinets</title>
	</path>
	<path class="st8" d="M-231.8-371.7c7.1-4.5,14.4-8.7,21.8-12.7l69.1,127.1c-4.8,2.6-9.4,5.3-14,8.2L-231.8-371.7z	">
<title>Double basses</title>
	</path>
	<path class="st8" d="M-208.2-385.3c7.4-4,14.9-7.8,22.5-11.4l61,131.2c-4.9,2.3-9.7,4.7-14.5,7.3L-208.2-385.3z	">
<title>Flutes</title>
	</path>
	<path class="st8" d="M-183.9-397.5c7.6-3.5,15.4-6.8,23.2-9.9l52.8,134.7c-5,2-10,4.1-14.9,6.4L-183.9-397.5z	">
<title>French Horns</title>
	</path>
	<path class="st8" d="M-158.8-408.2c7.8-3.1,15.8-5.9,23.8-8.5l44.3,137.7c-5.2,1.7-10.3,3.5-15.3,5.5L-158.8-408.2z	">
<title>Oboes</title>
	</path>
	<path class="st8" d="M-133.1-417.3c8-2.6,16.1-4.9,24.3-7l35.6,140.2c-5.2,1.4-10.5,2.8-15.6,4.5L-133.1-417.3z	">
<title>Timpani</title>
	</path>
	<path class="st8" d="M-106.9-424.8c8.2-2.1,16.4-3.9,24.6-5.5l26.8,142.2c-5.3,1-10.6,2.2-15.9,3.5L-106.9-424.8z	">
<title>Trumpets</title>
	</path>
	<path class="st8" d="M-80.3-430.6c8.3-1.5,16.6-2.8,24.9-3.9l18,143.5c-5.4,0.7-10.7,1.5-16.1,2.5L-80.3-430.6z	">
<title>Violas</title>
	</path>
	<path class="st8" d="M-53.4-434.7c8.4-1,16.7-1.8,25.1-2.4l9,144.4c-5.4,0.4-10.8,0.9-16.2,1.5L-53.4-434.7z	">
<title>Violins 1</title>
	</path>
	<path class="st8" d="M-26.2-437.2c8.4-0.5,16.8-0.8,25.2-0.8v144.7c-5.4,0-10.8,0.2-16.2,0.5L-26.2-437.2z	">
<title>Violins 2</title>
	</path>
</g>
<text transform="matrix(3.109991e-02 -0.9995 0.9995 3.109991e-02 464.4677 113.6399)" class="st0 st9 st10">Baritone horn</text>
<text transform="matrix(9.317927e-02 -0.9956 0.9956 9.317927e-02 485.8444 109.9202)" class="st0 st9 st10">Bass Drum</text>
<text transform="matrix(0.1549 -0.9879 0.9879 0.1549 507.3464 110.0712)" class="st0 st9 st10">Bassoons</text>
<text transform="matrix(0.216 -0.9764 0.9764 0.216 529.45 109.4072)" class="st0 st9 st10">Celesta</text>
<text transform="matrix(0.2763 -0.9611 0.9611 0.2763 551.316 112.0655)" class="st0 st9 st10">Cellos</text>
<text transform="matrix(0.3355 -0.942 0.942 0.3355 570.1716 124.5147)" class="st0 st9 st10">Clarinets</text>
<text transform="matrix(0.3934 -0.9194 0.9194 0.3934 590.2847 132.3573)" class="st0 st9 st10">Cymbals</text>
<text transform="matrix(0.4498 -0.8931 0.8931 0.4498 603.6309 153.8645)" class="st0 st9 st10">Double basses</text>
<text transform="matrix(0.5045 -0.8634 0.8634 0.5045 631.562 147.1862)" class="st0 st9 st10">Flutes</text>
<text transform="matrix(0.5572 -0.8304 0.8304 0.5572 640.7469 172.9037)" class="st0 st9 st10">French Horns</text>
<text transform="matrix(0.6077 -0.7941 0.7941 0.6077 658.6152 183.978)" class="st0 st9 st10">Glockenspiel</text>
<text transform="matrix(0.6559 -0.7548 0.7548 0.6559 684.7781 185.9224)" class="st0 st9 st10">Harps</text>
<text transform="matrix(0.7016 -0.7126 0.7126 0.7016 696.4542 205.384)" class="st0 st9 st10">Marimba</text>
<text transform="matrix(0.7445 -0.6676 0.6676 0.7445 714.697 218.0302)" class="st0 st9 st10">Oboes</text>
<text transform="matrix(0.7846 -0.62 0.62 0.7846 730.131 233.7302)" class="st0 st9 st10">Piano</text>
<text transform="matrix(0.8216 -0.57 0.57 0.8216 733.671 258.0608)" class="st0 st9 st10">Pipe organ</text>
<text transform="matrix(0.8555 -0.5178 0.5178 0.8555 742.6866 277.5015)" class="st0 st9 st10">Snare Drum</text>
<text transform="matrix(0.886 -0.4637 0.4637 0.886 759.4963 292.5505)" class="st0 st9 st10">Tam-tam</text>
<text transform="matrix(0.9131 -0.4077 0.4077 0.9131 762.5867 314.8194)" class="st0 st9 st10">Tambourine</text>
<text transform="matrix(0.9367 -0.3501 0.3501 0.9367 771.1706 334.2212)" class="st0 st9 st10">Tenor drum</text>
<text transform="matrix(0.9567 -0.2912 0.2912 0.9567 785.1044 352.1725)" class="st0 st9 st10">Timpani</text>
<text transform="matrix(0.9729 -0.2312 0.2312 0.9729 790.265 373.26)" class="st0 st9 st10">Triangle</text>
<text transform="matrix(0.9854 -0.1702 0.1702 0.9854 787.259 395.7925)" class="st0 st9 st10">Trombones</text>
<text transform="matrix(0.9941 -0.1087 0.1087 0.9941 794.1243 416.4113)" class="st0 st9 st10">Trumpets</text>
<text transform="matrix(0.9989 -4.664039e-02 4.664039e-02 0.9989 802.7582 437.5337)" class="st0 st9 st10">Tubas</text>
<text transform="matrix(0.9999 1.555181e-02 -1.555181e-02 0.9999 788.1236 459.2596)" class="st0 st9 st10">Tubular bells</text>
<text transform="matrix(0.997 7.768385e-02 -7.768385e-02 0.997 789.839 480.4922)" class="st0 st9 st10">Vibraphone</text>
<text transform="matrix(0.9902 0.1395 -0.1395 0.9902 799.127 503.2292)" class="st0 st9 st10">Violas</text>
<text transform="matrix(0.9796 0.2008 -0.2008 0.9796 789.9693 523.7709)" class="st0 st9 st10">Violins 1</text>
<text transform="matrix(0.9653 0.2613 -0.2613 0.9653 784.7253 544.7639)" class="st0 st9 st10">Violins 2</text>
<text transform="matrix(0.9471 0.3208 -0.3208 0.9471 771.3441 563.0727)" class="st0 st9 st10">Wood block</text>
<text transform="matrix(0.9254 0.3791 -0.3791 0.9254 765.9161 583.7424)" class="st0 st9 st10">Xylophone</text>
<text transform="matrix(0.9 0.4359 -0.4359 0.9 751.4966 600.4637)" class="st0 st9 st10">Bass Clarinet</text>
<text transform="matrix(0.8712 0.491 -0.491 0.8712 745.9218 621.3751)" class="st0 st9 st10">Bass Drum</text>
<text transform="matrix(0.839 0.5442 -0.5442 0.839 737.0173 640.9478)" class="st0 st9 st10">Bassoons</text>
<text transform="matrix(0.8035 0.5953 -0.5953 0.8035 731.0706 663.2227)" class="st0 st9 st10">Cellos</text>
<text transform="matrix(0.7649 0.6441 -0.6441 0.7649 712.8073 676.5258)" class="st0 st9 st10">Clarinets</text>
<text transform="matrix(0.7234 0.6904 -0.6904 0.7234 687.9569 682.6347)" class="st0 st9 st10">Contrabassoon</text>
<text transform="matrix(0.6791 0.7341 -0.7341 0.6791 685.8711 710.8549)" class="st0 st9 st10">Cornet</text>
<text transform="matrix(0.6321 0.7749 -0.7749 0.6321 666.39 721.5732)" class="st0 st9 st10">Cymbals</text>
<text transform="matrix(0.5827 0.8127 -0.8127 0.5827 641.1462 723.4259)" class="st0 st9 st10">Double basses</text>
<text transform="matrix(0.5311 0.8473 -0.8473 0.5311 626.1415 738.5518)" class="st0 st9 st10">English Horn</text>
<text transform="matrix(0.4774 0.8787 -0.8787 0.4774 615.0269 762.1331)" class="st0 st9 st10">Flutes</text>
<text transform="matrix(0.4218 0.9067 -0.9067 0.4218 588.2698 756.6725)" class="st0 st9 st10">French Horns</text>
<text transform="matrix(0.3647 0.9311 -0.9311 0.3647 569.5422 766.2236)" class="st0 st9 st10">Glockenspiel</text>
<text transform="matrix(0.3061 0.952 -0.952 0.3061 554.3312 787.5983)" class="st0 st9 st10">Harps</text>
<text transform="matrix(0.2463 0.9692 -0.9692 0.2463 532.7975 792.0804)" class="st0 st9 st10">Oboes</text>
<text transform="matrix(0.1855 0.9826 -0.9826 0.1855 511.1125 795.2035)" class="st0 st9 st10">Piccolo</text>
<text transform="matrix(0.1241 0.9923 -0.9923 0.1241 488.1893 787.5839)" class="st0 st9 st10">Snare Drum</text>
<text transform="matrix(6.216959e-02 0.9981 -0.9981 6.216959e-02 467.1792 790.1311)" class="st0 st9 st10">Tambourine</text>
<text transform="matrix(6.123234e-17 1 -1 6.123234e-17 446 799.069)" class="st0 st9 st10">Timpani</text>
<text transform="matrix(6.216959e-02 -0.9981 0.9981 6.216959e-02 430.0853 834.0502)" class="st0 st9 st10">Triangle</text>
<text transform="matrix(0.1241 -0.9923 0.9923 0.1241 405.351 839.2375)" class="st0 st9 st10">Trombones</text>
<text transform="matrix(0.1855 -0.9826 0.9826 0.1855 382.0128 831.6086)" class="st0 st9 st10">Trumpets</text>
<text transform="matrix(0.2463 -0.9692 0.9692 0.2463 360.1978 819.6469)" class="st0 st9 st10">Tubas</text>
<text transform="matrix(0.3061 -0.952 0.952 0.3061 337.4467 813.1744)" class="st0 st9 st10">Violas</text>
<text transform="matrix(0.3647 -0.9311 0.9311 0.3647 313.1604 810.3918)" class="st0 st9 st10">Violins 1</text>
<text transform="matrix(0.4218 -0.9067 0.9067 0.4218 291.0197 801.1868)" class="st0 st9 st10">Violins 2</text>
<text transform="matrix(0.4774 -0.8787 0.8787 0.4774 264.2784 800.2241)" class="st0 st9 st10">Bass Clarinet</text>
<text transform="matrix(0.5311 -0.8473 0.8473 0.5311 245.5238 783.7581)" class="st0 st9 st10">Bass Drum</text>
<text transform="matrix(0.5827 -0.8127 0.8127 0.5827 226.7831 768.1498)" class="st0 st9 st10">Bassoons</text>
<text transform="matrix(0.6321 -0.7749 0.7749 0.6321 210.5994 749.7791)" class="st0 st9 st10">Celesta</text>
<text transform="matrix(0.6791 -0.7341 0.7341 0.6791 194.5026 732.0706)" class="st0 st9 st10">Cellos</text>
<text transform="matrix(0.7234 -0.6904 0.6904 0.7234 175.2513 717.7489)" class="st0 st9 st10">Chimes</text>
<text transform="matrix(0.7649 -0.6441 0.6441 0.7649 157.01 701.9413)" class="st0 st9 st10">Clarinets</text>
<text transform="matrix(0.8035 -0.5953 0.5953 0.8035 130.5183 691.6817)" class="st0 st9 st10">Contrabassoon</text>
<text transform="matrix(0.839 -0.5442 0.5442 0.839 128.2447 663.4813)" class="st0 st9 st10">Cymbals</text>
<text transform="matrix(0.8712 -0.491 0.491 0.8712 103.7229 649.7561)" class="st0 st9 st10">Double basses</text>
<text transform="matrix(0.9 -0.4359 0.4359 0.9 95.9796 625.9017)" class="st0 st9 st10">English Horn</text>
<text transform="matrix(0.9254 -0.3791 0.3791 0.9254 99.6181 597.8621)" class="st0 st9 st10">Flutes</text>
<text transform="matrix(0.9471 -0.3208 0.3208 0.9471 75.3123 581.1418)" class="st0 st9 st10">French Horns</text>
<text transform="matrix(0.9653 -0.2613 0.2613 0.9653 69.4889 557.1595)" class="st0 st9 st10">Glockenspiel</text>
<text transform="matrix(0.9796 -0.2008 0.2008 0.9796 78.5395 530.226)" class="st0 st9 st10">Harps</text>
<text transform="matrix(0.9902 -0.1395 0.1395 0.9902 72.8901 507.1718)" class="st0 st9 st10">Oboes</text>
<text transform="matrix(0.997 -7.768383e-02 7.768383e-02 0.997 72.0027 483.4654)" class="st0 st9 st10">Piano</text>
<text transform="matrix(0.9999 -1.555170e-02 1.555170e-02 0.9999 67.3237 459.9525)" class="st0 st9 st10">Piccolo</text>
<text transform="matrix(0.9989 4.664033e-02 -4.664033e-02 0.9989 56.622 435.6371)" class="st0 st9 st10">Snare Drum</text>
<text transform="matrix(0.9941 0.1087 -0.1087 0.9941 65.7388 412.0244)" class="st0 st9 st10">Tam-tam</text>
<text transform="matrix(0.9854 0.1702 -0.1702 0.9854 62.2608 387.0712)" class="st0 st9 st10">Tambourine</text>
<text transform="matrix(0.9729 0.2312 -0.2312 0.9729 75.2199 365.0589)" class="st0 st9 st10">Timpani</text>
<text transform="matrix(0.9567 0.2912 -0.2912 0.9567 80.9571 341.8415)" class="st0 st9 st10">Triangle</text>
<text transform="matrix(0.9367 0.3501 -0.3501 0.9367 81.6283 316.578)" class="st0 st9 st10">Trombones</text>
<text transform="matrix(0.9131 0.4077 -0.4077 0.9131 94.4455 295.6356)" class="st0 st9 st10">Trumpets</text>
<text transform="matrix(0.886 0.4637 -0.4637 0.886 111.1264 277.1769)" class="st0 st9 st10">Tubas</text>
<text transform="matrix(0.8555 0.5178 -0.5178 0.8555 122.6828 256.5383)" class="st0 st9 st10">Violas</text>
<text transform="matrix(0.8216 0.57 -0.57 0.8216 131.0045 233.5531)" class="st0 st9 st10">Violins 1</text>
<text transform="matrix(0.7846 0.62 -0.62 0.7846 145.0782 214.1399)" class="st0 st9 st10">Violins 2</text>
<text transform="matrix(0.7445 0.6676 -0.6676 0.7445 152.1246 188.2805)" class="st0 st9 st10">Wagner Tuba</text>
<text transform="matrix(0.7016 0.7126 -0.7126 0.7016 173.3226 174.6869)" class="st0 st9 st10">Xylophone</text>
<text transform="matrix(0.6559 0.7548 -0.7548 0.6559 192.0709 159.2808)" class="st0 st9 st10">Bassoons</text>
<text transform="matrix(0.6077 0.7941 -0.7941 0.6077 215.5444 150.2119)" class="st0 st9 st10">Cellos</text>
<text transform="matrix(0.5572 0.8304 -0.8304 0.5572 231.3847 131.3705)" class="st0 st9 st10">Clarinets</text>
<text transform="matrix(0.5045 0.8634 -0.8634 0.5045 244.883 106.8713)" class="st0 st9 st10">Double basses</text>
<text transform="matrix(0.4498 0.8931 -0.8931 0.4498 275.3658 112.1633)" class="st0 st9 st10">Flutes</text>
<text transform="matrix(0.3934 0.9194 -0.9194 0.3934 290.1473 86.6321)" class="st0 st9 st10">French Horns</text>
<text transform="matrix(0.3355 0.942 -0.942 0.3355 318.2667 92.052)" class="st0 st9 st10">Oboes</text>
<text transform="matrix(0.2763 0.9611 -0.9611 0.2763 339.9827 81.7999)" class="st0 st9 st10">Timpani</text>
<text transform="matrix(0.216 0.9764 -0.9764 0.216 362.3666 72.4187)" class="st0 st9 st10">Trumpets</text>
<text transform="matrix(0.1549 0.9879 -0.9879 0.1549 387.1571 75.0138)" class="st0 st9 st10">Violas</text>
<text transform="matrix(9.317914e-02 0.9956 -0.9956 9.317914e-02 410.0996 66.5745)" class="st0 st9 st10">Violins 1</text>
<text transform="matrix(3.109964e-02 0.9995 -0.9995 3.109964e-02 434.0144 64.8356)" class="st0 st9 st10">Violins 2</text>
<g>
	<g>
		<path class="st0" d="M349.6,296.9c-0.6,0.5-1.1,0.8-1.8,1.1c-0.6,0.3-1.2,0.4-1.8,0.4c-0.6,0-1.2-0.1-1.7-0.3
			c-0.6-0.2-1.1-0.6-1.5-1.1c-0.4-0.5-0.7-1-0.9-1.6c-0.2-0.6-0.2-1.2,0-1.9c0.1-0.6,0.4-1.3,0.8-1.9s0.9-1.2,1.6-1.7
			c0.5-0.4,0.9-0.7,1.4-0.9c0.4-0.2,0.8-0.4,1.2-0.5c0.1-0.2,0.1-0.3,0.2-0.5c0.2-0.2,0.3-0.2,0.5-0.4c0.8,1,1.1,1.4,1.9,2.4
			c-0.2,0.2-0.3,0.2-0.5,0.4c-0.9-0.5-1.6-0.8-2.3-0.8c-0.7,0-1.3,0.2-1.9,0.7c-0.7,0.6-1.1,1.3-1,2.1c0,0.8,0.5,1.7,1.2,2.5
			c0.4,0.5,0.9,0.9,1.3,1.1c0.4,0.3,0.8,0.4,1.2,0.5c0.4,0.1,0.8,0,1.2-0.1c0.4-0.1,0.7-0.3,1.1-0.6c0.5-0.4,0.9-0.9,1.1-1.4
			c0.2-0.5,0.3-1.2,0.3-1.9c0.3-0.1,0.4-0.1,0.7-0.1c0,0.4,0,0.8,0,1.2c0,0.4-0.1,0.7-0.3,1.1c-0.2,0.4-0.4,0.8-0.6,1.1
			C350.5,296.1,350.1,296.5,349.6,296.9z"/>
		<path class="st0" d="M359.7,286.1c0.5,0.9,0.7,1.4,1.2,2.4c-3.1,1.9-4.6,2.9-7.5,5.1c-0.1-0.1-0.2-0.2-0.3-0.4
			c0.1-0.1,0.3-0.2,0.4-0.4s0.3-0.3,0.3-0.3c0.1-0.1,0.2-0.3,0.1-0.4c0-0.1-0.1-0.2-0.1-0.4c-1.4-1.9-2.1-2.9-3.4-4.8
			c-0.1-0.1-0.2-0.2-0.3-0.2c-0.1,0-0.3,0-0.5,0c-0.2,0-0.3,0.1-0.5,0.2c-0.2,0.1-0.3,0.2-0.5,0.2c-0.1-0.1-0.2-0.2-0.3-0.4
			c1.9-1.4,2.8-2,4.7-3.3c0.1,0.2,0.2,0.2,0.3,0.4c-0.1,0.1-0.3,0.2-0.4,0.4s-0.3,0.3-0.4,0.4c-0.1,0.1-0.2,0.3-0.2,0.4
			c0,0.1,0.1,0.2,0.1,0.4c1.2,1.8,1.9,2.7,3.1,4.5c0.1,0.2,0.3,0.4,0.4,0.5c0.1,0.1,0.2,0.1,0.4,0.1c0.1,0,0.3-0.1,0.5-0.2
			c0.2-0.1,0.4-0.3,0.8-0.5c0.3-0.2,0.6-0.4,0.9-0.6s0.4-0.4,0.5-0.6c0.1-0.3,0.1-0.7,0.2-1.1c0-0.4,0-0.8,0-1.2
			C359.4,286.3,359.5,286.2,359.7,286.1z"/>
		<path class="st0" d="M370.8,283c-1.9,0.9-2.8,1.4-4.7,2.5c-0.1-0.2-0.1-0.2-0.2-0.4c0.2-0.1,0.4-0.3,0.7-0.5
			c0.3-0.2,0.4-0.4,0.3-0.4c0,0,0-0.1-0.1-0.1s-0.1-0.1-0.1-0.1c-0.6-0.4-0.9-0.7-1.6-1.1c-1.2,0.7-1.8,1-3,1.7c0,0.2,0,0.4,0.1,0.6
			c0,0.2,0.1,0.4,0.1,0.6c0,0.2,0.1,0.4,0.1,0.5c0,0.1,0.1,0.2,0.1,0.2c0.1,0.1,0.2,0.1,0.5,0.1c0.2,0,0.6-0.2,1.1-0.4
			c0.1,0.2,0.1,0.2,0.2,0.4c-1.4,0.8-2.1,1.2-3.4,2.1c-0.1-0.2-0.1-0.2-0.2-0.4c0.1-0.1,0.3-0.2,0.4-0.3s0.3-0.2,0.3-0.4
			c0.1-0.2,0.2-0.4,0.2-0.5c0-0.2,0.1-0.4,0-0.6c-0.1-1.2-0.2-2.4-0.3-3.7c-0.1-1.2-0.1-2.6-0.2-4.1c0.5-0.3,0.8-0.4,1.3-0.7
			c1.8,1.2,3.1,2.2,4.1,2.9c1,0.7,1.8,1.3,2.4,1.8c0.1,0.1,0.2,0.1,0.3,0.2c0.1,0,0.3,0.1,0.5,0.1c0.1,0,0.3,0,0.5-0.1
			s0.3-0.1,0.4-0.2C370.6,282.8,370.7,282.8,370.8,283z M364.6,282.4c-1.1-0.8-1.6-1.1-2.8-1.9c0.1,1.3,0.1,2,0.2,3.3
			C363.1,283.3,363.6,283,364.6,282.4z"/>
		<path class="st0" d="M374.6,281.4c-0.5,0.2-1.1,0.4-1.6,0.5s-1,0.2-1.4,0.2c-0.1,0.2-0.2,0.3-0.2,0.6c-0.2,0.1-0.3,0.2-0.5,0.3
			c-0.6-1.1-0.8-1.6-1.4-2.7c0.2-0.1,0.3-0.2,0.5-0.3c0.2,0.2,0.5,0.4,0.9,0.6c0.3,0.2,0.7,0.3,1,0.5c0.4,0.1,0.7,0.2,1.1,0.2
			c0.4,0,0.8-0.1,1.2-0.3c0.6-0.3,1-0.6,1.2-0.9c0.2-0.4,0.2-0.7,0.1-1.1c-0.1-0.3-0.4-0.5-0.7-0.6c-0.4-0.1-0.8-0.1-1.5,0
			c-0.4,0.1-0.8,0.1-1.1,0.2s-0.7,0.1-1,0.1c-0.7,0.1-1.3,0-1.8-0.2c-0.5-0.2-0.8-0.6-1.1-1c-0.1-0.3-0.2-0.6-0.2-1s0.1-0.7,0.3-1.1
			c0.2-0.3,0.5-0.7,0.9-1c0.4-0.3,0.9-0.6,1.4-0.9c0.5-0.2,1.1-0.4,1.6-0.5c0.5-0.1,0.9-0.1,1.2-0.1c0.1-0.2,0.2-0.3,0.3-0.5
			c0.2-0.1,0.4-0.1,0.6-0.2c0.5,1,0.7,1.6,1.1,2.6c-0.2,0.1-0.3,0.1-0.6,0.2c-0.3-0.2-0.5-0.4-0.8-0.7c-0.3-0.2-0.6-0.4-0.9-0.5
			c-0.3-0.1-0.6-0.2-1-0.2c-0.3,0-0.7,0.1-1.1,0.3c-0.5,0.2-0.8,0.5-1,0.9c-0.2,0.4-0.2,0.7-0.1,1c0.1,0.3,0.4,0.5,0.7,0.6
			c0.3,0.1,0.8,0,1.4,0c0.4-0.1,0.7-0.1,1.1-0.2c0.4-0.1,0.7-0.1,1-0.1c0.7-0.1,1.3,0,1.8,0.2c0.5,0.2,0.8,0.6,1,1.1
			c0.1,0.3,0.2,0.7,0.1,1.1c-0.1,0.4-0.2,0.7-0.4,1.1c-0.2,0.4-0.6,0.7-0.9,1C375.7,280.9,375.2,281.2,374.6,281.4z"/>
		<path class="st0" d="M383.1,278c-0.6,0.2-1.1,0.3-1.6,0.4c-0.5,0.1-1,0.1-1.4,0c-0.1,0.2-0.2,0.3-0.3,0.6
			c-0.2,0.1-0.3,0.1-0.5,0.2c-0.5-1.1-0.7-1.7-1.2-2.8c0.2-0.1,0.3-0.1,0.6-0.2c0.2,0.2,0.5,0.4,0.8,0.7c0.3,0.2,0.6,0.4,1,0.5
			c0.4,0.1,0.7,0.2,1.1,0.3s0.8,0,1.2-0.2c0.6-0.2,1-0.5,1.2-0.8c0.2-0.4,0.3-0.7,0.2-1.1c-0.1-0.3-0.3-0.5-0.7-0.6
			c-0.3-0.1-0.8-0.1-1.5-0.1c-0.4,0-0.8,0.1-1.1,0.1c-0.3,0-0.7,0.1-1,0.1c-0.7,0-1.3-0.1-1.8-0.3c-0.5-0.3-0.8-0.6-1-1.1
			c-0.1-0.3-0.2-0.6-0.1-1s0.2-0.7,0.4-1c0.2-0.3,0.5-0.6,1-1c0.4-0.3,0.9-0.6,1.5-0.8c0.5-0.2,1.1-0.3,1.6-0.4c0.5,0,0.9,0,1.3,0
			c0.1-0.2,0.2-0.3,0.3-0.5c0.2-0.1,0.4-0.1,0.6-0.2c0.4,1.1,0.6,1.6,0.9,2.7c-0.2,0.1-0.4,0.1-0.6,0.2c-0.2-0.2-0.5-0.5-0.8-0.7
			c-0.3-0.2-0.6-0.4-0.8-0.6c-0.3-0.1-0.6-0.2-1-0.2c-0.3,0-0.7,0-1.1,0.2c-0.5,0.2-0.9,0.4-1.1,0.8c-0.2,0.3-0.3,0.7-0.2,1
			c0.1,0.3,0.3,0.5,0.7,0.6c0.3,0.1,0.8,0.1,1.4,0.1c0.4,0,0.7-0.1,1.1-0.1c0.4,0,0.7,0,1-0.1c0.7,0,1.3,0.1,1.8,0.4
			c0.5,0.3,0.8,0.7,0.9,1.2c0.1,0.3,0.1,0.7,0,1.1s-0.3,0.7-0.5,1c-0.3,0.3-0.6,0.7-1,0.9C384.2,277.5,383.7,277.8,383.1,278z"/>
		<path class="st0" d="M393,274.7c-2.1,0.5-3.1,0.8-5.2,1.5c-0.1-0.2-0.1-0.3-0.1-0.4c0.1,0,0.3-0.1,0.5-0.2
			c0.2-0.1,0.4-0.2,0.5-0.2c0.1-0.1,0.2-0.2,0.3-0.3c0-0.1,0-0.2,0-0.4c-0.7-2.3-1-3.4-1.7-5.7c0-0.1-0.1-0.2-0.2-0.3
			s-0.2-0.1-0.4-0.1c-0.1,0-0.3,0-0.5,0c-0.2,0-0.4,0.1-0.6,0.1c-0.1-0.2-0.1-0.3-0.1-0.4c2.2-0.7,3.3-1,5.6-1.6
			c0,0.2,0.1,0.3,0.1,0.4c-0.1,0-0.3,0.1-0.5,0.2s-0.4,0.2-0.5,0.2c-0.2,0.1-0.3,0.2-0.3,0.3c0,0.1,0,0.2,0,0.4
			c0.6,2.3,0.9,3.4,1.5,5.7c0,0.1,0.1,0.2,0.2,0.3c0.1,0.1,0.2,0.1,0.4,0.1c0.1,0,0.3,0,0.5,0s0.4-0.1,0.6-0.1
			C392.9,274.5,392.9,274.5,393,274.7z"/>
		<path class="st0" d="M398.9,273.6c-0.7,0.1-1.4,0.2-2,0.1c-0.7-0.1-1.2-0.2-1.8-0.5c-0.5-0.3-1-0.6-1.4-1.1
			c-0.4-0.5-0.7-1-0.8-1.6c-0.2-0.6-0.2-1.2,0-1.8c0.1-0.6,0.4-1.2,0.8-1.7c0.4-0.5,0.9-0.9,1.6-1.3c0.6-0.4,1.4-0.6,2.1-0.8
			c0.6-0.1,1.1-0.2,1.6-0.1c0.5,0,0.9,0.1,1.3,0.2c0.2-0.2,0.2-0.2,0.4-0.4c0.3,0,0.4-0.1,0.6-0.1c0.2,1.2,0.3,1.8,0.6,3
			c-0.3,0-0.4,0.1-0.6,0.1c-0.5-0.9-1.1-1.4-1.6-1.8c-0.6-0.3-1.2-0.4-2-0.3c-0.9,0.2-1.5,0.6-1.9,1.4c-0.3,0.7-0.4,1.7-0.1,2.8
			c0.1,0.6,0.3,1.2,0.6,1.6c0.3,0.4,0.5,0.7,0.8,1c0.3,0.2,0.7,0.4,1.1,0.4c0.4,0.1,0.8,0,1.2,0c0.6-0.1,1.2-0.4,1.6-0.8
			c0.4-0.4,0.8-0.9,1.1-1.6c0.3,0.1,0.4,0.1,0.6,0.2c-0.1,0.4-0.3,0.7-0.5,1c-0.2,0.3-0.5,0.6-0.7,0.8c-0.3,0.3-0.7,0.5-1.1,0.7
			C400,273.3,399.5,273.5,398.9,273.6z"/>
		<path class="st0" d="M414.3,271.3c-2.1,0.1-3.2,0.2-5.3,0.5c0-0.2,0-0.3-0.1-0.5c0.2,0,0.5-0.1,0.9-0.2c0.3-0.1,0.5-0.2,0.5-0.3
			c0,0,0-0.1,0-0.1c0,0,0-0.1-0.1-0.2c-0.4-0.7-0.6-1-1-1.6c-1.4,0.1-2.1,0.2-3.4,0.4c-0.1,0.2-0.1,0.4-0.2,0.6
			c-0.1,0.2-0.1,0.4-0.2,0.6c-0.1,0.2-0.1,0.4-0.1,0.5c0,0.1,0,0.2,0,0.2c0,0.1,0.1,0.2,0.4,0.3c0.2,0.1,0.6,0.1,1.1,0
			c0,0.2,0,0.3,0.1,0.5c-1.6,0.2-2.4,0.3-4,0.6c0-0.2,0-0.3-0.1-0.5c0.1,0,0.3-0.1,0.5-0.1c0.2-0.1,0.3-0.1,0.4-0.2
			c0.2-0.1,0.3-0.3,0.4-0.4s0.2-0.3,0.3-0.5c0.4-1.2,0.8-2.3,1.2-3.5c0.4-1.2,0.9-2.5,1.4-3.9c0.6-0.1,0.9-0.1,1.5-0.2
			c1.2,1.8,2,3.2,2.7,4.2c0.6,1,1.1,1.9,1.6,2.6c0.1,0.1,0.2,0.2,0.3,0.3c0.1,0.1,0.2,0.2,0.4,0.2c0.1,0.1,0.3,0.1,0.5,0.1
			c0.2,0,0.3,0,0.5,0C414.3,271,414.3,271.1,414.3,271.3z M408.8,268.4c-0.7-1.1-1.1-1.7-1.8-2.8c-0.4,1.3-0.7,1.9-1.1,3.2
			C407.1,268.6,407.7,268.5,408.8,268.4z"/>
		<path class="st0" d="M423.8,268.4c-0.1,1.1-0.1,1.6-0.2,2.7c-3.7-0.1-5.5,0-9.1,0.2c0-0.2,0-0.3,0-0.5c0.2,0,0.4-0.1,0.6-0.1
			s0.4-0.1,0.4-0.1c0.2-0.1,0.3-0.1,0.3-0.2c0.1-0.1,0.1-0.2,0.1-0.4c-0.1-2.3-0.2-3.5-0.3-5.9c0-0.1,0-0.3-0.1-0.3
			s-0.2-0.2-0.4-0.2c-0.2,0-0.3-0.1-0.6-0.1c-0.2,0-0.4,0-0.5,0c0-0.2,0-0.3,0-0.5c2.3-0.1,3.5-0.2,5.8-0.2c0,0.2,0,0.3,0,0.5
			c-0.2,0-0.3,0-0.6,0.1c-0.2,0-0.4,0.1-0.6,0.1c-0.2,0.1-0.3,0.1-0.4,0.2c-0.1,0.1-0.1,0.2-0.1,0.4c0.1,2.2,0.1,3.3,0.2,5.5
			c0,0.3,0,0.5,0.1,0.6s0.1,0.3,0.3,0.3c0.1,0.1,0.3,0.1,0.5,0.1s0.5,0,0.9,0c0.4,0,0.7,0,1.1-0.1c0.4,0,0.6-0.1,0.8-0.2
			c0.2-0.2,0.5-0.5,0.7-0.8s0.5-0.7,0.6-1C423.4,268.4,423.6,268.4,423.8,268.4z"/>
		<path class="st0" d="M352.7,303.1c0.6,0,1.2,0.1,1.7,0.4c0.5,0.2,1,0.6,1.5,1.2c0.4,0.5,0.7,1,0.8,1.5c0.2,0.6,0.2,1.1,0.2,1.7
			c-0.1,0.6-0.2,1.1-0.5,1.7c-0.3,0.5-0.7,1.1-1.3,1.6c-0.5,0.4-1,0.7-1.5,1c-0.5,0.2-1.1,0.4-1.7,0.4c-0.6,0-1.1-0.1-1.7-0.3
			s-1.1-0.5-1.5-1c-0.5-0.5-0.8-1-1-1.6c-0.2-0.6-0.3-1.2-0.2-1.8c0.1-0.6,0.2-1.2,0.6-1.8c0.3-0.6,0.7-1.1,1.3-1.6
			c0.5-0.5,1.1-0.8,1.7-1.1C351.5,303.3,352.1,303.1,352.7,303.1z M355.3,308.7c-0.1-0.4-0.3-0.8-0.5-1.2c-0.2-0.4-0.5-0.8-0.9-1.2
			c-0.3-0.4-0.6-0.7-1-1c-0.4-0.3-0.7-0.5-1.1-0.7c-0.4-0.1-0.7-0.2-1.1-0.2c-0.4,0-0.7,0.2-1.1,0.5c-0.6,0.5-0.8,1.2-0.7,2
			c0.2,0.8,0.7,1.6,1.5,2.5c0.4,0.4,0.7,0.7,1.1,1c0.4,0.3,0.8,0.5,1.1,0.6c0.4,0.1,0.7,0.2,1.1,0.1c0.3,0,0.7-0.2,1-0.5
			c0.3-0.3,0.5-0.6,0.6-0.9C355.4,309.5,355.4,309.1,355.3,308.7z"/>
		<path class="st0" d="M367.1,301.6c-1.1,0.7-1.7,1.1-2.7,1.8c-0.9-0.4-1.7-0.6-2.3-0.8c-0.6-0.2-1.3-0.4-2.2-0.5
			c-0.1,0.1-0.2,0.1-0.3,0.2c0.6,0.8,0.9,1.2,1.5,2c0.1,0.1,0.2,0.2,0.3,0.2c0.1,0,0.2,0,0.4,0c0.1,0,0.2-0.1,0.3-0.1
			s0.3-0.1,0.4-0.2c0.1,0.1,0.2,0.2,0.3,0.4c-1.5,1.1-2.2,1.6-3.7,2.8c-0.1-0.1-0.2-0.2-0.3-0.4c0.1-0.1,0.2-0.2,0.3-0.3
			c0.1-0.1,0.2-0.2,0.3-0.3c0.1-0.1,0.1-0.3,0.1-0.4c0-0.1-0.1-0.2-0.2-0.3c-1.4-1.9-2.2-2.8-3.6-4.6c-0.1-0.1-0.2-0.2-0.3-0.2
			c-0.1,0-0.2,0-0.4,0c-0.1,0-0.3,0.1-0.5,0.2c-0.2,0.1-0.3,0.2-0.4,0.2c-0.1-0.1-0.2-0.2-0.3-0.4c1.6-1.3,2.5-1.9,4.2-3.2
			c0.9-0.7,1.8-1.1,2.5-1.1c0.7-0.1,1.2,0.2,1.6,0.7c0.3,0.5,0.4,1,0.3,1.5c-0.1,0.5-0.4,1-0.9,1.6c0.4,0.1,0.9,0.3,1.5,0.4
			s1.1,0.3,1.7,0.5c0.2,0.1,0.4,0.1,0.7,0.2c0.3,0.1,0.5,0.1,0.7,0c0.1,0,0.2-0.1,0.3-0.1c0.1-0.1,0.2-0.1,0.3-0.1
			C367,301.4,367,301.5,367.1,301.6z M360.2,298.9c-0.3-0.5-0.7-0.7-1.1-0.7s-0.9,0.2-1.4,0.6c-0.2,0.1-0.2,0.2-0.4,0.3
			c0.8,1.1,1.2,1.7,2.1,2.8c0.2-0.1,0.2-0.2,0.4-0.3c0.5-0.4,0.8-0.8,0.9-1.2C360.7,299.9,360.5,299.4,360.2,298.9z"/>
		<path class="st0" d="M371.1,299.4c-0.5,0.3-1.1,0.5-1.7,0.6c-0.6,0.1-1.1,0.1-1.7,0c-0.5-0.1-1-0.3-1.5-0.6
			c-0.5-0.3-0.9-0.8-1.3-1.3c-0.4-0.5-0.6-1.1-0.7-1.7c-0.1-0.6-0.1-1.2,0.1-1.8c0.2-0.6,0.5-1.1,0.9-1.6c0.4-0.5,0.9-0.9,1.6-1.3
			c0.4-0.3,0.9-0.4,1.3-0.6c0.4-0.1,0.8-0.2,1.1-0.2c0.1-0.2,0.1-0.3,0.2-0.5c0.2-0.1,0.3-0.2,0.5-0.3c0.6,1.1,0.9,1.6,1.5,2.6
			c-0.2,0.1-0.3,0.2-0.5,0.3c-0.7-0.7-1.4-1.1-2-1.2c-0.6-0.2-1.2-0.1-1.8,0.3c-0.7,0.4-1.1,1-1.1,1.8c0,0.8,0.3,1.7,0.9,2.7
			c0.3,0.6,0.7,1,1.1,1.3c0.4,0.3,0.7,0.6,1,0.7c0.4,0.1,0.7,0.2,1.1,0.1c0.3,0,0.7-0.2,1-0.4c0.5-0.3,0.9-0.7,1.1-1.1
			c0.2-0.5,0.4-1.1,0.4-1.8c0.2,0,0.4,0,0.6,0c0,0.4,0,0.8-0.1,1.1s-0.2,0.7-0.3,1c-0.2,0.3-0.4,0.7-0.7,1
			C371.9,298.9,371.5,299.2,371.1,299.4z"/>
		<path class="st0" d="M384.2,292.7c-1.7,0.7-2.6,1.1-4.2,1.8c-0.1-0.2-0.1-0.2-0.2-0.4c0.1,0,0.2-0.1,0.4-0.2
			c0.2-0.1,0.3-0.2,0.3-0.2c0.1-0.1,0.2-0.2,0.2-0.3s0-0.2-0.1-0.4c-0.5-1-0.7-1.6-1.2-2.6c-1.4,0.6-2.1,0.9-3.4,1.6
			c0.5,1,0.7,1.5,1.2,2.5c0.1,0.1,0.1,0.2,0.2,0.3c0.1,0.1,0.2,0.1,0.4,0.1c0.1,0,0.2,0,0.4-0.1s0.3-0.1,0.4-0.1
			c0.1,0.2,0.1,0.2,0.2,0.4c-1.7,0.8-2.5,1.2-4.1,2.1c-0.1-0.2-0.1-0.2-0.2-0.4c0.1-0.1,0.2-0.1,0.4-0.2c0.2-0.1,0.3-0.2,0.3-0.3
			c0.1-0.1,0.2-0.2,0.2-0.3c0-0.1,0-0.2-0.1-0.4c-1.1-2.1-1.6-3.1-2.7-5.2c-0.1-0.1-0.1-0.2-0.2-0.3c-0.1-0.1-0.2-0.1-0.4-0.1
			c-0.1,0-0.3,0-0.5,0.1c-0.2,0.1-0.3,0.1-0.4,0.1c-0.1-0.2-0.1-0.2-0.2-0.4c1.8-0.9,2.7-1.4,4.5-2.2c0.1,0.2,0.1,0.2,0.2,0.4
			c-0.1,0.1-0.3,0.2-0.4,0.3s-0.3,0.2-0.3,0.3c-0.1,0.1-0.2,0.2-0.2,0.4c0,0.1,0,0.2,0.1,0.4c0.4,0.9,0.7,1.3,1.1,2.2
			c1.4-0.7,2.1-1,3.5-1.6c-0.4-0.9-0.6-1.3-1-2.2c-0.1-0.1-0.1-0.2-0.2-0.3c-0.1-0.1-0.2-0.1-0.4-0.1c-0.1,0-0.3,0-0.5,0.1
			s-0.3,0.1-0.4,0.1c-0.1-0.2-0.1-0.2-0.2-0.4c1.8-0.8,2.7-1.2,4.6-2c0.1,0.2,0.1,0.3,0.2,0.4c-0.1,0.1-0.3,0.1-0.4,0.2
			c-0.2,0.1-0.3,0.2-0.4,0.3c-0.1,0.1-0.2,0.2-0.2,0.3s0,0.2,0.1,0.4c0.9,2.2,1.4,3.3,2.3,5.4c0.1,0.1,0.1,0.2,0.2,0.3
			c0.1,0.1,0.2,0.1,0.4,0.1c0.1,0,0.2,0,0.4-0.1c0.2,0,0.3-0.1,0.4-0.1C384.1,292.5,384.2,292.6,384.2,292.7z"/>
		<path class="st0" d="M390.3,284c-0.2,0.1-0.3,0.1-0.5,0.1c-0.2-0.3-0.5-0.5-0.9-0.7c-0.4-0.2-0.7-0.3-1-0.3
			c-0.1,0-0.3,0.1-0.5,0.1c-0.2,0.1-0.4,0.1-0.5,0.2c-0.5,0.2-0.8,0.3-1.3,0.4c0.4,1.2,0.6,1.8,1.1,3c0.3-0.1,0.5-0.2,0.9-0.3
			c0.2-0.1,0.4-0.2,0.6-0.3c0.2-0.1,0.3-0.3,0.4-0.4c0.1-0.1,0.1-0.3,0.1-0.5c0-0.2,0-0.5,0-0.6c0.2-0.1,0.3-0.1,0.5-0.1
			c0.4,1.3,0.6,2,1.1,3.3c-0.2,0.1-0.3,0.1-0.4,0.1c-0.1-0.1-0.2-0.3-0.4-0.5c-0.2-0.2-0.3-0.3-0.4-0.4c-0.2-0.1-0.4-0.1-0.6-0.1
			c-0.2,0-0.4,0.1-0.6,0.1c-0.3,0.1-0.5,0.2-0.9,0.3c0.3,0.9,0.5,1.4,0.8,2.3c0.1,0.2,0.2,0.4,0.3,0.5s0.2,0.2,0.3,0.2
			c0.1,0,0.3,0,0.4,0s0.4-0.1,0.7-0.2c0.1,0,0.3-0.1,0.5-0.2c0.2-0.1,0.3-0.1,0.5-0.2c0.2-0.1,0.3-0.1,0.4-0.2
			c0.1-0.1,0.2-0.2,0.3-0.3c0.1-0.2,0.2-0.6,0.4-1c0.1-0.4,0.2-0.8,0.2-1c0.2-0.1,0.3-0.1,0.4-0.1c0.2,1,0.4,1.5,0.6,2.5
			c-3.1,0.9-4.6,1.5-7.6,2.6c-0.1-0.2-0.1-0.3-0.2-0.4c0.1,0,0.2-0.1,0.4-0.2c0.2-0.1,0.3-0.2,0.4-0.2c0.1-0.1,0.2-0.2,0.2-0.3
			c0-0.1,0-0.2-0.1-0.4c-0.8-2.2-1.2-3.3-2.1-5.5c0-0.1-0.1-0.2-0.2-0.3c-0.1-0.1-0.2-0.1-0.4-0.1c-0.1,0-0.3,0-0.5,0
			c-0.2,0-0.4,0.1-0.5,0.1c-0.1-0.2-0.1-0.3-0.2-0.4c3-1.2,4.6-1.7,7.7-2.7C389.9,282.8,390,283.2,390.3,284z"/>
		<path class="st0" d="M396.9,288.8c-0.5,0.1-1,0.2-1.5,0.2c-0.5,0-0.9,0-1.2-0.1c-0.1,0.2-0.2,0.3-0.3,0.5
			c-0.2,0.1-0.3,0.1-0.5,0.1c-0.4-1.1-0.6-1.7-0.9-2.9c0.2-0.1,0.3-0.1,0.5-0.1c0.2,0.2,0.4,0.5,0.7,0.7c0.3,0.3,0.5,0.5,0.8,0.6
			c0.3,0.2,0.6,0.3,1,0.4c0.3,0.1,0.7,0.1,1.1,0c0.5-0.1,0.9-0.4,1.1-0.7c0.2-0.3,0.3-0.7,0.2-1.1c-0.1-0.3-0.3-0.6-0.6-0.7
			c-0.3-0.2-0.7-0.2-1.3-0.3c-0.4,0-0.7,0-1,0c-0.3,0-0.6,0-0.9-0.1c-0.6-0.1-1.1-0.2-1.5-0.6c-0.4-0.3-0.7-0.7-0.8-1.2
			c-0.1-0.3-0.1-0.6,0-1c0.1-0.3,0.2-0.7,0.4-1c0.2-0.3,0.5-0.6,0.9-0.8c0.4-0.3,0.8-0.4,1.4-0.6c0.5-0.1,1-0.2,1.4-0.2
			c0.5,0,0.8,0.1,1.1,0.1c0.1-0.2,0.2-0.3,0.3-0.4c0.2-0.1,0.3-0.1,0.6-0.1c0.3,1.1,0.4,1.7,0.7,2.8c-0.2,0-0.3,0.1-0.5,0.1
			c-0.2-0.3-0.4-0.5-0.6-0.8c-0.2-0.3-0.5-0.5-0.7-0.6c-0.3-0.2-0.5-0.3-0.8-0.4c-0.3-0.1-0.6-0.1-1,0c-0.5,0.1-0.8,0.3-1,0.6
			c-0.2,0.3-0.3,0.6-0.2,1c0.1,0.3,0.3,0.5,0.6,0.7c0.3,0.1,0.7,0.2,1.3,0.2c0.3,0,0.7,0,1,0.1c0.3,0,0.6,0,0.9,0.1
			c0.6,0.1,1.2,0.3,1.6,0.6s0.6,0.7,0.8,1.3c0.1,0.4,0.1,0.7,0,1.1c-0.1,0.4-0.3,0.7-0.5,1c-0.3,0.3-0.6,0.6-1,0.8
			C397.9,288.5,397.4,288.7,396.9,288.8z"/>
		<path class="st0" d="M408.2,280.4c-0.2,0-0.3,0-0.5,0.1c-0.2-0.3-0.4-0.7-0.8-1c-0.3-0.4-0.7-0.5-0.9-0.5c-0.1,0-0.3,0-0.5,0
			c-0.2,0-0.4,0-0.5,0.1c-0.1,0-0.2,0-0.3,0c0.4,2.6,0.6,3.9,1,6.4c0,0.1,0.1,0.3,0.1,0.4c0.1,0.1,0.2,0.2,0.3,0.2
			c0.1,0,0.2,0,0.4,0s0.4,0,0.5,0c0,0.2,0,0.3,0.1,0.5c-1.9,0.3-2.8,0.4-4.7,0.8c0-0.2-0.1-0.3-0.1-0.4c0.1,0,0.3-0.1,0.5-0.1
			c0.2-0.1,0.3-0.1,0.4-0.2c0.1-0.1,0.2-0.2,0.3-0.3c0-0.1,0-0.2,0-0.4c-0.5-2.6-0.7-3.9-1.2-6.5c-0.1,0-0.2,0-0.3,0.1
			c-0.1,0-0.3,0.1-0.5,0.1c-0.2,0-0.4,0.1-0.5,0.1c-0.2,0.1-0.5,0.3-0.7,0.8c-0.2,0.5-0.3,0.9-0.4,1.2c-0.2,0-0.3,0.1-0.5,0.1
			c-0.2-0.9-0.3-1.4-0.5-2.3c3.5-0.7,5.3-1,8.9-1.5C408.1,279,408.1,279.5,408.2,280.4z"/>
		<path class="st0" d="M419.3,285.5c-1.3,0-2,0.1-3.3,0.1c-0.6-0.8-1.1-1.4-1.6-1.9c-0.4-0.5-0.9-1-1.6-1.6c-0.1,0-0.2,0-0.3,0
			c0.1,1,0.1,1.5,0.2,2.5c0,0.1,0.1,0.3,0.1,0.3s0.2,0.2,0.3,0.2c0.1,0,0.2,0,0.4,0.1c0.2,0,0.3,0,0.4,0c0,0.2,0,0.3,0,0.5
			c-1.8,0.1-2.7,0.2-4.6,0.5c0-0.2,0-0.3-0.1-0.5c0.1,0,0.3-0.1,0.5-0.1c0.2,0,0.3-0.1,0.4-0.1c0.1-0.1,0.2-0.2,0.3-0.3
			c0-0.1,0.1-0.2,0-0.4c-0.3-2.3-0.4-3.5-0.6-5.8c0-0.1-0.1-0.3-0.1-0.3c-0.1-0.1-0.2-0.2-0.4-0.2c-0.1,0-0.3-0.1-0.5-0.1
			s-0.3,0-0.5,0c0-0.2,0-0.3-0.1-0.5c2.1-0.3,3.1-0.4,5.2-0.5c1.2-0.1,2.1,0,2.7,0.3c0.6,0.3,0.9,0.8,1,1.4c0,0.6-0.1,1.1-0.5,1.4
			c-0.3,0.4-0.9,0.7-1.6,0.9c0.3,0.3,0.7,0.7,1.1,1.1s0.8,0.9,1.2,1.3c0.1,0.1,0.3,0.3,0.5,0.5c0.2,0.2,0.4,0.3,0.6,0.4
			c0.1,0,0.2,0,0.4,0.1c0.1,0,0.2,0,0.3,0C419.3,285.2,419.3,285.3,419.3,285.5z M414.8,279.5c0-0.6-0.2-0.9-0.6-1.2
			c-0.4-0.2-0.9-0.3-1.5-0.3c-0.2,0-0.3,0-0.5,0c0.1,1.4,0.2,2.1,0.3,3.5c0.2,0,0.3,0,0.5,0c0.6-0.1,1.1-0.2,1.4-0.6
			C414.7,280.7,414.8,280.2,414.8,279.5z"/>
		<path class="st0" d="M428.8,285.7c-1.9-0.1-2.8-0.2-4.7-0.2c0-0.2,0-0.3,0-0.5c0.2,0,0.5,0,0.8-0.1c0.3-0.1,0.5-0.1,0.5-0.2
			c0,0,0-0.1,0-0.1s0-0.1,0-0.2c-0.3-0.7-0.4-1-0.7-1.7c-1.2,0-1.8,0-3.1,0c-0.1,0.2-0.1,0.3-0.2,0.6c-0.1,0.2-0.2,0.4-0.2,0.6
			c-0.1,0.2-0.1,0.4-0.1,0.5c0,0.1,0,0.2,0,0.2c0,0.1,0.1,0.2,0.3,0.3c0.2,0.1,0.5,0.1,1,0.2c0,0.2,0,0.3,0,0.5c-1.4,0-2.1,0-3.5,0
			c0-0.2,0-0.3,0-0.5c0.1,0,0.3,0,0.5-0.1c0.2,0,0.3-0.1,0.4-0.1c0.2-0.1,0.3-0.2,0.4-0.4c0.1-0.1,0.2-0.3,0.3-0.5
			c0.5-1.1,0.9-2.2,1.4-3.3s1.1-2.3,1.7-3.6c0.5,0,0.8,0,1.3,0c0.8,1.9,1.4,3.4,1.8,4.5c0.4,1.1,0.8,2,1,2.8c0,0.1,0.1,0.2,0.2,0.3
			s0.2,0.2,0.3,0.3c0.1,0.1,0.2,0.1,0.4,0.2s0.3,0.1,0.4,0.1C428.8,285.5,428.8,285.6,428.8,285.7z M424.3,282.2
			c-0.5-1.2-0.7-1.8-1.3-3c-0.5,1.2-0.8,1.8-1.3,3C422.7,282.1,423.3,282.1,424.3,282.2z"/>
	</g>
</g>
<g>
	<g>
		<path class="st0" d="M456.3,615.9c-0.2,0-0.3,0-0.5,0c-0.1-0.3-0.3-0.6-0.6-1c-0.3-0.3-0.6-0.5-0.8-0.6c-0.1,0-0.3-0.1-0.5-0.1
			s-0.4,0-0.5,0c-0.5,0-0.8,0-1.3-0.1c-0.1,1.3-0.1,1.9-0.2,3.2c0.4,0,0.5,0,0.9,0c0.2,0,0.4,0,0.6,0c0.2,0,0.4-0.1,0.5-0.3
			c0.1-0.1,0.2-0.2,0.3-0.5c0.1-0.2,0.2-0.4,0.2-0.6c0.2,0,0.3,0,0.5,0c-0.1,1.4-0.1,2.1-0.1,3.5c-0.2,0-0.3,0-0.5,0
			c0-0.2-0.1-0.4-0.2-0.6c-0.1-0.3-0.2-0.4-0.3-0.5c-0.1-0.1-0.3-0.3-0.5-0.3s-0.4-0.1-0.6-0.1c-0.4,0-0.5,0-0.9,0
			c-0.1,1-0.1,1.4-0.1,2.4c0,0.2,0,0.4,0,0.6c0,0.1,0.1,0.3,0.2,0.3c0.1,0.1,0.2,0.1,0.4,0.2c0.2,0,0.4,0.1,0.8,0.1
			c0.1,0,0.3,0,0.5,0c0.2,0,0.4,0,0.5,0c0.2,0,0.3,0,0.5-0.1c0.2,0,0.3-0.1,0.4-0.2c0.2-0.2,0.4-0.5,0.7-0.9
			c0.3-0.4,0.4-0.7,0.5-0.9c0.2,0,0.3,0,0.5,0c-0.1,1-0.1,1.6-0.2,2.6c-3.4-0.1-5.1-0.2-8.5-0.4c0-0.2,0-0.3,0-0.5
			c0.1,0,0.3,0,0.5,0s0.4,0,0.4,0c0.2-0.1,0.3-0.1,0.3-0.2c0.1-0.1,0.1-0.2,0.1-0.4c0.2-2.3,0.2-3.5,0.4-5.9c0-0.1,0-0.3,0-0.4
			s-0.1-0.2-0.3-0.3c-0.1-0.1-0.2-0.1-0.4-0.2s-0.3-0.1-0.4-0.1c0-0.2,0-0.3,0-0.5c3.1,0.2,4.6,0.3,7.6,0.4
			C456.3,614.7,456.3,615.1,456.3,615.9z"/>
		<path class="st0" d="M467.3,622.1c-2,0.1-2.9,0.1-4.9,0.1c0-0.2,0-0.3,0-0.5c0.2,0,0.5-0.1,0.8-0.1c0.3-0.1,0.5-0.1,0.5-0.2
			c0,0,0-0.1,0-0.1s0-0.1-0.1-0.2c-0.3-0.7-0.5-1-0.8-1.7c-1.2,0-1.8,0-3.1,0c-0.1,0.2-0.2,0.3-0.2,0.6c-0.1,0.2-0.2,0.4-0.2,0.6
			c-0.1,0.2-0.1,0.4-0.1,0.5c0,0.1,0,0.2,0,0.2c0,0.1,0.1,0.2,0.3,0.3c0.2,0.1,0.5,0.2,1,0.2c0,0.2,0,0.3,0,0.5
			c-1.5,0-2.2,0-3.7-0.1c0-0.2,0-0.3,0-0.5c0.1,0,0.3,0,0.5,0c0.2,0,0.3-0.1,0.4-0.1c0.2-0.1,0.3-0.2,0.4-0.3s0.2-0.3,0.3-0.5
			c0.5-1.1,1-2.2,1.5-3.3c0.5-1.1,1-2.3,1.6-3.6c0.5,0,0.7,0,1.2,0c0.8,1.9,1.5,3.3,2,4.4c0.5,1.1,0.9,2,1.3,2.7
			c0.1,0.1,0.1,0.2,0.2,0.3c0.1,0.1,0.2,0.2,0.4,0.3c0.1,0.1,0.3,0.1,0.4,0.1c0.2,0,0.3,0,0.4,0
			C467.3,621.8,467.3,621.9,467.3,622.1z M462.5,618.8c-0.5-1.2-0.8-1.8-1.3-3c-0.5,1.2-0.7,1.8-1.3,3
			C461,618.8,461.5,618.8,462.5,618.8z"/>
		<path class="st0" d="M477.7,621.4c-1.4,0.1-2.1,0.2-3.4,0.3c-0.7-0.8-1.2-1.4-1.6-1.9c-0.4-0.5-0.9-1-1.6-1.6c-0.1,0-0.2,0-0.3,0
			c0.1,1,0.1,1.5,0.2,2.5c0,0.1,0,0.3,0.1,0.4c0.1,0.1,0.2,0.2,0.3,0.2c0.1,0,0.2,0.1,0.4,0.1c0.2,0,0.3,0,0.4,0c0,0.2,0,0.3,0,0.5
			c-1.9,0.1-2.9,0.2-4.8,0.3c0-0.2,0-0.3,0-0.5c0.1,0,0.3,0,0.5-0.1c0.2,0,0.3-0.1,0.4-0.1c0.2-0.1,0.3-0.2,0.3-0.3s0.1-0.2,0.1-0.4
			c-0.1-2.3-0.2-3.5-0.3-5.9c0-0.1,0-0.3-0.1-0.3c0-0.1-0.2-0.2-0.3-0.2c-0.1,0-0.3-0.1-0.5-0.1c-0.2,0-0.3,0-0.4-0.1
			c0-0.2,0-0.3,0-0.5c1.9-0.1,2.9-0.1,4.8-0.3c1.1-0.1,1.9,0,2.5,0.3s0.9,0.7,1,1.4c0.1,0.6-0.1,1.1-0.4,1.4c-0.3,0.4-0.8,0.7-1.5,1
			c0.3,0.3,0.7,0.7,1.1,1.1c0.4,0.4,0.8,0.8,1.3,1.3c0.1,0.1,0.3,0.3,0.6,0.5s0.5,0.3,0.6,0.3c0.1,0,0.2,0,0.4,0c0.2,0,0.3,0,0.3,0
			C477.7,621.1,477.7,621.2,477.7,621.4z M472.9,615.6c0-0.6-0.2-0.9-0.6-1.2s-0.8-0.3-1.4-0.3c-0.2,0-0.3,0-0.5,0
			c0.1,1.4,0.1,2.1,0.2,3.5c0.2,0,0.3,0,0.5,0c0.6,0,1.1-0.2,1.4-0.5C472.9,616.7,473,616.2,472.9,615.6z"/>
		<path class="st0" d="M485.7,617.6c0.1,1.1,0.1,1.6,0.2,2.7c-3.3,0.5-4.9,0.7-8.2,1c0-0.2,0-0.3,0-0.5c0.1,0,0.3-0.1,0.5-0.1
			c0.2,0,0.3-0.1,0.4-0.1c0.1-0.1,0.2-0.2,0.3-0.3c0-0.1,0.1-0.2,0-0.4c-0.3-2.3-0.4-3.5-0.6-5.8c0-0.1-0.1-0.3-0.1-0.3
			c-0.1-0.1-0.2-0.2-0.3-0.2c-0.1,0-0.3-0.1-0.5-0.1s-0.3,0-0.4,0c0-0.2,0-0.3,0-0.5c1.9-0.2,2.8-0.3,4.7-0.5c0,0.2,0,0.3,0.1,0.5
			c-0.1,0-0.3,0.1-0.4,0.1c-0.2,0-0.3,0.1-0.4,0.1c-0.1,0.1-0.2,0.2-0.3,0.3c0,0.1,0,0.2,0,0.4c0.3,2.2,0.4,3.3,0.7,5.4
			c0,0.3,0.1,0.5,0.1,0.6c0.1,0.1,0.1,0.2,0.3,0.3c0.1,0.1,0.3,0.1,0.5,0.1s0.5,0,0.8-0.1c0.3,0,0.7-0.1,1-0.2
			c0.3-0.1,0.5-0.2,0.6-0.3c0.2-0.2,0.4-0.5,0.5-0.9c0.2-0.4,0.3-0.7,0.4-1.1C485.4,617.7,485.5,617.7,485.7,617.6z"/>
		<path class="st0" d="M494.2,610.8c-0.1,0-0.3,0.1-0.4,0.2c-0.1,0.1-0.2,0.1-0.3,0.2c-0.1,0.1-0.3,0.3-0.4,0.4
			c-0.1,0.2-0.2,0.4-0.3,0.6c-0.2,0.4-0.4,0.9-0.6,1.4c-0.2,0.5-0.4,1-0.7,1.6c-0.2,0.4-0.2,0.6-0.3,0.8c0,0.2,0,0.5,0.1,0.9
			c0.1,0.5,0.1,0.7,0.2,1.2c0,0.1,0.1,0.3,0.2,0.3c0.1,0.1,0.2,0.2,0.4,0.2c0.1,0,0.2,0,0.5,0s0.4,0,0.5,0c0,0.2,0.1,0.3,0.1,0.4
			c-2,0.4-2.9,0.6-4.9,0.9c0-0.2,0-0.3-0.1-0.5c0.1,0,0.3-0.1,0.5-0.1c0.2-0.1,0.4-0.1,0.4-0.2c0.1-0.1,0.2-0.2,0.3-0.3s0-0.2,0-0.4
			c-0.1-0.6-0.2-0.9-0.3-1.4c0-0.1,0-0.2-0.1-0.3c0-0.1,0-0.2-0.1-0.2c0-0.1-0.1-0.2-0.2-0.3c-0.1-0.1-0.2-0.2-0.3-0.4
			c-0.4-0.5-0.8-0.9-1.2-1.3c-0.4-0.4-0.7-0.8-1-1.2c-0.2-0.2-0.3-0.3-0.5-0.4s-0.3-0.2-0.5-0.2c-0.1,0-0.3-0.1-0.4-0.1
			s-0.3,0-0.4,0c0-0.2,0-0.3-0.1-0.5c1.9-0.3,2.9-0.5,4.8-0.8c0,0.2,0,0.3,0.1,0.4c-0.4,0.1-0.7,0.2-0.9,0.3
			c-0.1,0.1-0.2,0.2-0.2,0.2c0,0,0.1,0.1,0.1,0.2c0.1,0.1,0.2,0.3,0.4,0.5c0.2,0.2,0.4,0.5,0.8,0.9c0.3,0.4,0.8,0.8,1.2,1.4
			c0.5-1.3,0.9-2.2,1.1-2.7c0.2-0.5,0.3-0.8,0.3-0.9c0-0.1-0.1-0.2-0.3-0.2c-0.2,0-0.5,0-0.8,0c0-0.2-0.1-0.3-0.1-0.4
			c1.2-0.2,1.9-0.4,3.1-0.6C494.1,610.5,494.1,610.6,494.2,610.8z"/>
		<path class="st0" d="M509,615.1c-1.3,0.4-2,0.6-3.3,1c-0.8-0.7-1.4-1.2-2-1.6c-0.5-0.4-1.1-0.8-1.8-1.3c-0.1,0-0.2,0.1-0.3,0.1
			c0.3,1,0.4,1.5,0.6,2.4c0,0.1,0.1,0.2,0.2,0.3c0.1,0.1,0.2,0.1,0.4,0.2c0.1,0,0.2,0,0.4,0s0.3,0,0.4,0c0,0.2,0.1,0.3,0.1,0.4
			c-1.8,0.5-2.8,0.7-4.6,1.2c0-0.2-0.1-0.3-0.1-0.4c0.1,0,0.3-0.1,0.5-0.2c0.2-0.1,0.3-0.1,0.4-0.2c0.1-0.1,0.2-0.2,0.3-0.3
			c0-0.1,0-0.2,0-0.4c-0.6-2.3-0.8-3.4-1.4-5.7c0-0.1-0.1-0.2-0.1-0.3c-0.1-0.1-0.2-0.1-0.4-0.2c-0.1,0-0.3,0-0.5,0
			c-0.2,0-0.3,0-0.4,0c0-0.2-0.1-0.3-0.1-0.4c1.9-0.4,2.8-0.7,4.6-1.2c1-0.3,1.9-0.3,2.5-0.2c0.6,0.2,1,0.6,1.2,1.2
			c0.2,0.6,0.1,1.1-0.1,1.5c-0.2,0.4-0.7,0.8-1.3,1.2c0.4,0.3,0.8,0.6,1.3,0.9c0.5,0.3,1,0.7,1.5,1c0.2,0.1,0.4,0.2,0.7,0.4
			s0.5,0.2,0.7,0.2c0.1,0,0.2,0,0.4,0s0.3,0,0.3-0.1C508.9,614.8,508.9,614.9,509,615.1z M503.2,610.3c-0.1-0.5-0.4-0.9-0.8-1
			c-0.4-0.2-0.8-0.2-1.4,0c-0.2,0-0.3,0.1-0.5,0.1c0.4,1.3,0.5,2,0.9,3.4c0.2,0,0.3-0.1,0.5-0.1c0.6-0.2,1-0.4,1.2-0.8
			C503.3,611.5,503.4,610.9,503.2,610.3z"/>
		<path class="st0" d="M514.3,605.5c0.5,0.2,1,0.5,1.4,0.9c0.4,0.4,0.7,0.9,1,1.6c0.2,0.6,0.3,1.1,0.3,1.7s-0.1,1.1-0.4,1.6
			c-0.3,0.5-0.6,1-1.1,1.4c-0.5,0.4-1.1,0.7-1.9,1c-0.6,0.2-1.2,0.3-1.8,0.3c-0.6,0-1.2-0.1-1.7-0.4c-0.5-0.2-1-0.6-1.4-1
			c-0.4-0.4-0.7-1-0.9-1.6c-0.2-0.7-0.3-1.3-0.2-1.9c0.1-0.6,0.2-1.2,0.5-1.6c0.3-0.5,0.7-0.9,1.1-1.3s1-0.7,1.6-0.9
			c0.6-0.2,1.2-0.3,1.8-0.3C513.3,605.2,513.8,605.3,514.3,605.5z M514.8,611.7c0.1-0.4,0.1-0.8,0-1.3c-0.1-0.5-0.2-0.9-0.4-1.5
			c-0.2-0.5-0.3-0.9-0.6-1.3c-0.2-0.4-0.5-0.8-0.7-1c-0.3-0.3-0.6-0.5-0.9-0.6c-0.3-0.1-0.7-0.1-1.1,0c-0.7,0.2-1.1,0.7-1.3,1.5
			s0,1.7,0.3,2.9c0.2,0.5,0.3,1,0.6,1.4c0.2,0.4,0.5,0.8,0.8,1c0.3,0.3,0.6,0.5,0.9,0.6c0.3,0.1,0.7,0.1,1.1-0.1
			c0.4-0.1,0.7-0.3,0.9-0.6C514.6,612.4,514.8,612,514.8,611.7z"/>
		<path class="st0" d="M530.3,606.9c-1.8,0.8-2.6,1.2-4.4,2c-0.1-0.2-0.1-0.3-0.2-0.4c0.1-0.1,0.3-0.2,0.5-0.3s0.3-0.2,0.4-0.2
			c0.1-0.1,0.2-0.2,0.2-0.4s0-0.3-0.1-0.4c-1-2.3-1.5-3.4-2.5-5.7c0.1,3.1,0.1,4.7,0.1,7.9c-0.3,0.1-0.4,0.2-0.7,0.3
			c-0.1-0.1-0.3-0.3-0.5-0.6c-0.3-0.3-0.5-0.5-0.7-0.7c-1.7-1.8-2.5-2.7-4.2-4.5c0.7,1.9,1.1,2.8,1.8,4.7c0.2,0.5,0.3,0.8,0.5,1
			c0.2,0.2,0.3,0.3,0.5,0.4c0.1,0,0.3,0,0.6,0c0.3,0,0.5-0.1,0.6-0.1c0.1,0.2,0.1,0.3,0.2,0.4c-1.4,0.6-2.1,0.8-3.6,1.4
			c-0.1-0.2-0.1-0.3-0.2-0.4c0.1,0,0.2-0.1,0.5-0.3c0.2-0.1,0.4-0.3,0.5-0.4c0.1-0.2,0.2-0.4,0.1-0.6s-0.1-0.6-0.3-1.1
			c-0.6-1.5-0.9-2.3-1.5-3.8c-0.1-0.2-0.2-0.4-0.3-0.5s-0.3-0.2-0.4-0.3c-0.2-0.1-0.4-0.1-0.5,0s-0.3,0.1-0.5,0.1
			c-0.1-0.2-0.1-0.3-0.2-0.4c1.5-0.5,2.2-0.8,3.6-1.4c1.6,1.7,2.4,2.6,4.1,4.3c0-1.9,0-2.9-0.1-4.8c0-0.2,0-0.4-0.1-0.6
			c0-0.2-0.1-0.4-0.1-0.4c1.4-0.6,2.1-0.9,3.4-1.5c0.1,0.2,0.1,0.2,0.2,0.4c-0.1,0.1-0.2,0.1-0.3,0.2c-0.1,0.1-0.2,0.2-0.3,0.3
			c-0.1,0.1-0.2,0.2-0.2,0.3s0,0.2,0.1,0.4c1,2.1,1.5,3.2,2.4,5.4c0.1,0.1,0.1,0.2,0.2,0.3s0.2,0.1,0.4,0.1c0.1,0,0.2,0,0.4-0.1
			c0.2-0.1,0.3-0.1,0.4-0.1C530.2,606.7,530.3,606.8,530.3,606.9z"/>
		<path class="st0" d="M539.9,602.2c-1.7,0.9-2.6,1.4-4.3,2.3c-0.1-0.2-0.1-0.2-0.2-0.4c0.2-0.1,0.4-0.3,0.7-0.5
			c0.2-0.2,0.3-0.3,0.3-0.4c0,0,0-0.1-0.1-0.1c0,0-0.1-0.1-0.1-0.1c-0.6-0.5-0.9-0.7-1.5-1.2c-1.1,0.6-1.6,0.8-2.7,1.4
			c0,0.2,0,0.4,0,0.6c0,0.2,0,0.4,0.1,0.6c0,0.2,0.1,0.4,0.1,0.5s0.1,0.2,0.1,0.2c0.1,0.1,0.2,0.2,0.4,0.2s0.6-0.1,1-0.3
			c0.1,0.2,0.1,0.2,0.2,0.4c-1.3,0.6-2,1-3.3,1.6c-0.1-0.2-0.1-0.2-0.2-0.4c0.1-0.1,0.3-0.2,0.4-0.3c0.1-0.1,0.2-0.2,0.3-0.3
			c0.1-0.2,0.2-0.3,0.2-0.5c0-0.2,0.1-0.4,0.1-0.6c0-1.2-0.1-2.4-0.1-3.6c-0.1-1.2-0.1-2.5-0.2-4c0.4-0.2,0.6-0.3,1.1-0.5
			c1.6,1.3,2.8,2.4,3.7,3.1s1.7,1.4,2.3,1.9c0.1,0.1,0.2,0.1,0.3,0.2c0.1,0,0.3,0.1,0.4,0.1c0.1,0,0.3,0,0.4-0.1
			c0.2,0,0.3-0.1,0.4-0.1C539.7,601.9,539.8,602,539.9,602.2z M534.2,601.3c-1-0.8-1.5-1.3-2.5-2.1c0.1,1.3,0.1,1.9,0.2,3.2
			C532.8,602,533.3,601.8,534.2,601.3z"/>
		<path class="st0" d="M544.7,590.2c-0.1,0.1-0.2,0.2-0.4,0.3c-0.2,0.1-0.3,0.3-0.4,0.5c-0.1,0.2-0.1,0.4,0,0.6
			c0.1,0.3,0.3,0.6,0.5,1c1.2,2,1.9,3,3.1,5.1c-0.4,0.2-0.6,0.4-1,0.6c-3.3-1-4.8-1.6-8-2.8c0.8,1.4,1.1,2,1.9,3.4
			c0.2,0.4,0.4,0.7,0.6,0.9c0.2,0.2,0.4,0.3,0.6,0.3c0.1,0,0.3,0,0.6-0.1c0.2-0.1,0.4-0.1,0.6-0.2c0.1,0.2,0.1,0.2,0.2,0.4
			c-1.3,0.8-2,1.1-3.4,1.9c-0.1-0.2-0.1-0.2-0.2-0.4c0.1-0.1,0.3-0.2,0.5-0.3c0.2-0.1,0.3-0.3,0.4-0.4c0.1-0.2,0.1-0.4,0-0.6
			c-0.1-0.2-0.2-0.6-0.5-1.1c-0.8-1.4-1.1-2.1-1.9-3.4c-0.1-0.2-0.2-0.3-0.3-0.4s-0.3-0.2-0.5-0.2c-0.2,0-0.4-0.1-0.6,0
			c-0.2,0-0.4,0.1-0.6,0.1c-0.1-0.2-0.1-0.2-0.2-0.4c1.1-0.6,1.7-0.9,2.8-1.6c2.7,1,4.1,1.5,6.9,2.4c-0.7-1.1-1-1.6-1.6-2.7
			c-0.3-0.4-0.5-0.7-0.7-0.9c-0.2-0.2-0.4-0.3-0.6-0.3c-0.1,0-0.3,0-0.6,0.1s-0.4,0.1-0.5,0.2c-0.1-0.2-0.1-0.2-0.2-0.4
			c1.3-0.8,1.9-1.1,3.1-1.9C544.5,590,544.6,590.1,544.7,590.2z"/>
		<path class="st0" d="M552.9,587.1c-0.2,0.1-0.2,0.2-0.4,0.3c-0.3-0.2-0.7-0.4-1.2-0.6c-0.5-0.2-0.8-0.2-1-0.1
			c-0.1,0.1-0.3,0.1-0.4,0.2c-0.2,0.1-0.3,0.2-0.4,0.3c-0.1,0.1-0.1,0.1-0.2,0.2c1.5,2.2,2.2,3.2,3.7,5.4c0.1,0.1,0.2,0.2,0.3,0.3
			c0.1,0.1,0.2,0.1,0.4,0c0.1,0,0.2-0.1,0.4-0.2s0.3-0.2,0.5-0.2c0.1,0.2,0.2,0.2,0.3,0.4c-1.7,1.1-2.5,1.7-4.2,2.8
			c-0.1-0.2-0.1-0.2-0.2-0.4c0.1-0.1,0.2-0.2,0.4-0.3c0.2-0.1,0.3-0.2,0.3-0.3c0.1-0.1,0.1-0.3,0.1-0.4c0-0.1-0.1-0.2-0.1-0.4
			c-1.4-2.2-2.2-3.3-3.6-5.5c-0.1,0.1-0.1,0.1-0.2,0.2c-0.1,0.1-0.2,0.2-0.4,0.3c-0.2,0.1-0.3,0.2-0.4,0.3c-0.2,0.2-0.3,0.5-0.3,1
			s0,0.9,0.1,1.3c-0.2,0.1-0.2,0.2-0.4,0.3c-0.5-0.8-0.8-1.2-1.3-2c2.8-1.8,4.2-2.7,6.9-4.6C552,585.9,552.3,586.3,552.9,587.1z"/>
		<path class="st0" d="M560.7,588.7c-1.6,1.2-2.4,1.8-4,3c-0.1-0.1-0.2-0.2-0.3-0.4c0.1-0.1,0.2-0.2,0.4-0.3
			c0.2-0.1,0.3-0.3,0.3-0.3c0.1-0.1,0.1-0.3,0.1-0.4c0-0.1-0.1-0.2-0.1-0.3c-1.4-1.9-2.1-2.9-3.5-4.8c-0.1-0.1-0.2-0.2-0.3-0.2
			c-0.1-0.1-0.2-0.1-0.4,0c-0.1,0-0.2,0.1-0.4,0.2c-0.2,0.1-0.3,0.1-0.4,0.2c-0.1-0.1-0.2-0.2-0.3-0.4c1.6-1.1,2.3-1.7,3.8-2.8
			c0.1,0.1,0.2,0.2,0.3,0.4c-0.1,0.1-0.2,0.2-0.3,0.3c-0.1,0.1-0.2,0.2-0.3,0.4c-0.1,0.1-0.1,0.3-0.1,0.4c0,0.1,0.1,0.2,0.2,0.3
			c1.4,1.9,2.1,2.8,3.5,4.7c0.1,0.1,0.2,0.2,0.3,0.2c0.1,0,0.2,0,0.4,0c0.1,0,0.2-0.1,0.4-0.2c0.2-0.1,0.3-0.2,0.5-0.3
			C560.6,588.5,560.6,588.5,560.7,588.7z"/>
		<path class="st0" d="M565.3,585.4c-0.5,0.4-1.1,0.7-1.6,0.9c-0.6,0.2-1.2,0.3-1.7,0.3c-0.6,0-1.1-0.2-1.6-0.5
			c-0.5-0.3-1-0.7-1.4-1.2c-0.4-0.5-0.7-1.1-0.8-1.6c-0.1-0.6-0.2-1.2-0.1-1.7c0.1-0.6,0.3-1.1,0.6-1.6c0.3-0.5,0.7-1,1.2-1.4
			c0.4-0.3,0.7-0.5,1.1-0.7c0.4-0.2,0.7-0.3,1-0.3c0-0.2,0-0.3,0.1-0.5c0.2-0.1,0.2-0.2,0.4-0.3c0.8,0.9,1.2,1.4,2,2.3
			c-0.2,0.1-0.3,0.2-0.4,0.4c-0.8-0.5-1.6-0.8-2.2-0.9c-0.6-0.1-1.1,0.1-1.6,0.5c-0.6,0.5-0.8,1.1-0.7,1.9c0.1,0.8,0.5,1.6,1.2,2.5
			c0.4,0.5,0.8,0.9,1.2,1.2s0.8,0.5,1.1,0.5c0.4,0.1,0.7,0.1,1.1,0c0.3-0.1,0.7-0.3,1-0.5c0.5-0.4,0.8-0.8,0.9-1.4
			c0.2-0.5,0.2-1.1,0.1-1.8c0.2,0,0.4-0.1,0.6-0.1c0.1,0.4,0.1,0.7,0.1,1.1s-0.1,0.7-0.2,1.1c-0.1,0.4-0.3,0.7-0.5,1.1
			C566,584.7,565.7,585,565.3,585.4z"/>
		<path class="st0" d="M477.8,628.4c0.5,0.3,0.9,0.7,1.2,1.2s0.5,1.1,0.6,1.8c0.1,0.6,0,1.2-0.2,1.8c-0.2,0.6-0.5,1.1-0.9,1.5
			c-0.4,0.5-0.9,0.8-1.6,1.1s-1.4,0.5-2.2,0.5c-0.7,0.1-1.4,0-2-0.2c-0.6-0.2-1.2-0.4-1.7-0.8c-0.5-0.3-0.9-0.8-1.2-1.3
			c-0.3-0.5-0.5-1.1-0.5-1.8c0-0.7,0.1-1.3,0.3-1.9s0.6-1.1,1-1.5c0.4-0.4,1-0.7,1.6-1c0.6-0.2,1.3-0.4,2-0.5c0.7-0.1,1.4,0,2,0.1
			C476.7,627.8,477.3,628.1,477.8,628.4z M476.6,634.5c0.2-0.4,0.3-0.8,0.3-1.2c0-0.5,0-1,0-1.5c0-0.5-0.1-0.9-0.2-1.4
			s-0.3-0.8-0.5-1.2c-0.2-0.3-0.5-0.6-0.8-0.8c-0.3-0.2-0.7-0.3-1.2-0.2c-0.8,0.1-1.4,0.4-1.7,1.1c-0.4,0.7-0.5,1.7-0.4,2.9
			c0,0.5,0.1,1,0.2,1.5c0.1,0.5,0.3,0.8,0.5,1.2c0.2,0.3,0.5,0.6,0.8,0.8c0.3,0.2,0.7,0.2,1.2,0.2c0.5,0,0.8-0.2,1.1-0.4
			C476.2,635.1,476.5,634.8,476.6,634.5z"/>
		<path class="st0" d="M492.1,633.9c-1.5,0.3-2.2,0.4-3.7,0.6c-0.8-0.7-1.4-1.3-1.9-1.8s-1.1-0.9-1.8-1.5c-0.1,0-0.2,0-0.4,0
			c0.1,1,0.2,1.5,0.3,2.5c0,0.1,0.1,0.3,0.1,0.3s0.2,0.2,0.4,0.2c0.1,0,0.2,0,0.4,0c0.2,0,0.3,0,0.5,0c0,0.2,0,0.3,0.1,0.5
			c-2.1,0.3-3.1,0.4-5.2,0.7c0-0.2,0-0.3-0.1-0.5c0.1,0,0.3-0.1,0.5-0.1s0.4-0.1,0.4-0.1c0.2-0.1,0.3-0.2,0.3-0.3
			c0-0.1,0.1-0.2,0-0.4c-0.3-2.3-0.4-3.5-0.7-5.8c0-0.1-0.1-0.3-0.1-0.3s-0.2-0.2-0.4-0.2c-0.1,0-0.3-0.1-0.5-0.1
			c-0.2,0-0.3,0-0.5,0c0-0.2,0-0.3-0.1-0.5c2.1-0.2,3.1-0.4,5.2-0.7c1.2-0.2,2.1-0.1,2.7,0.1c0.7,0.2,1,0.7,1.1,1.3
			c0.1,0.6,0,1.1-0.3,1.5c-0.3,0.4-0.9,0.8-1.6,1.1c0.4,0.3,0.8,0.6,1.2,1c0.5,0.4,1,0.8,1.5,1.2c0.2,0.1,0.4,0.3,0.7,0.5
			c0.3,0.2,0.5,0.3,0.7,0.3c0.1,0,0.2,0,0.4,0c0.2,0,0.3,0,0.3,0C492.1,633.6,492.1,633.7,492.1,633.9z M486.6,628.5
			c-0.1-0.5-0.3-0.9-0.7-1.1c-0.4-0.2-0.9-0.3-1.5-0.2c-0.2,0-0.3,0-0.5,0.1c0.2,1.4,0.3,2.1,0.5,3.4c0.2,0,0.3,0,0.5-0.1
			c0.7-0.1,1.1-0.3,1.4-0.7C486.6,629.7,486.7,629.2,486.6,628.5z"/>
		<path class="st0" d="M497.2,633.1c-0.7,0.1-1.4,0.2-2,0.1c-0.6-0.1-1.2-0.3-1.8-0.5c-0.5-0.3-0.9-0.7-1.3-1.2
			c-0.3-0.5-0.6-1.1-0.7-1.7c-0.1-0.6-0.1-1.2,0.1-1.8c0.2-0.6,0.4-1.1,0.8-1.6c0.4-0.5,0.8-0.9,1.4-1.2c0.6-0.3,1.2-0.6,1.9-0.7
			c0.5-0.1,1-0.1,1.4-0.1c0.4,0,0.8,0.1,1.1,0.1c0.1-0.2,0.2-0.2,0.3-0.4c0.2,0,0.3-0.1,0.6-0.1c0.3,1.2,0.4,1.8,0.7,2.9
			c-0.2,0.1-0.3,0.1-0.6,0.1c-0.5-0.8-1.1-1.4-1.6-1.7c-0.5-0.3-1.1-0.4-1.8-0.3c-0.8,0.2-1.4,0.6-1.6,1.3s-0.3,1.7-0.1,2.8
			c0.1,0.6,0.3,1.2,0.5,1.6c0.2,0.4,0.5,0.8,0.8,1c0.3,0.2,0.7,0.4,1,0.5c0.4,0.1,0.8,0.1,1.2,0c0.6-0.1,1.1-0.4,1.6-0.8
			c0.4-0.4,0.8-0.9,1-1.6c0.3,0.1,0.4,0.1,0.6,0.2c-0.1,0.4-0.3,0.7-0.4,1c-0.2,0.3-0.4,0.6-0.7,0.9c-0.3,0.3-0.7,0.5-1.1,0.7
			C498.3,632.9,497.8,633,497.2,633.1z"/>
		<path class="st0" d="M513.4,628.8c-2,0.6-3,0.9-5,1.5c0-0.2-0.1-0.3-0.1-0.4c0.1,0,0.3-0.1,0.5-0.2s0.3-0.1,0.4-0.2
			c0.1-0.1,0.2-0.2,0.3-0.3c0-0.1,0-0.2,0-0.4c-0.3-1.1-0.5-1.7-0.8-2.8c-1.6,0.4-2.3,0.7-3.9,1.1c0.3,1.1,0.4,1.6,0.7,2.7
			c0,0.1,0.1,0.2,0.2,0.3c0.1,0.1,0.2,0.1,0.4,0.2c0.1,0,0.2,0,0.5,0c0.2,0,0.4,0,0.5-0.1c0,0.2,0.1,0.3,0.1,0.4
			c-2,0.5-3.1,0.8-5.1,1.3c0-0.2-0.1-0.3-0.1-0.4c0.1,0,0.3-0.1,0.5-0.2c0.2-0.1,0.4-0.1,0.4-0.2c0.1-0.1,0.2-0.2,0.3-0.3
			c0-0.1,0-0.2,0-0.4c-0.6-2.3-0.8-3.4-1.4-5.7c0-0.1-0.1-0.2-0.2-0.3c-0.1-0.1-0.2-0.1-0.4-0.2c-0.1,0-0.3,0-0.5,0
			c-0.2,0-0.4,0-0.5,0c0-0.2-0.1-0.3-0.1-0.4c2-0.5,2.9-0.7,4.9-1.2c0,0.2,0.1,0.3,0.1,0.4c-0.1,0-0.3,0.1-0.5,0.2
			c-0.2,0.1-0.3,0.1-0.4,0.2c-0.2,0.1-0.2,0.2-0.3,0.3c0,0.1,0,0.2,0,0.4c0.2,1,0.4,1.4,0.6,2.4c1.6-0.4,2.3-0.6,3.9-1.1
			c-0.3-0.9-0.4-1.4-0.7-2.3c0-0.1-0.1-0.2-0.2-0.3c-0.1-0.1-0.2-0.1-0.4-0.1c-0.1,0-0.3,0-0.5,0c-0.2,0-0.3,0-0.5,0
			c0-0.2-0.1-0.3-0.1-0.4c1.9-0.5,2.9-0.8,4.8-1.4c0.1,0.2,0.1,0.3,0.1,0.4c-0.1,0-0.3,0.1-0.4,0.2c-0.2,0.1-0.3,0.2-0.4,0.2
			c-0.1,0.1-0.2,0.2-0.3,0.3c0,0.1,0,0.2,0,0.4c0.7,2.3,1,3.4,1.7,5.6c0,0.1,0.1,0.2,0.2,0.3s0.2,0.1,0.4,0.1c0.1,0,0.3,0,0.5,0
			s0.4-0.1,0.5-0.1C513.4,628.5,513.4,628.6,513.4,628.8z"/>
		<path class="st0" d="M520.4,619.9c-0.2,0.1-0.3,0.1-0.5,0.2c-0.2-0.3-0.5-0.5-0.9-0.7c-0.4-0.2-0.8-0.3-1.1-0.2
			c-0.1,0-0.3,0.1-0.5,0.1c-0.2,0.1-0.4,0.1-0.6,0.2c-0.5,0.2-0.8,0.3-1.3,0.4c0.4,1.2,0.6,1.8,1,3c0.4-0.1,0.6-0.2,0.9-0.3
			c0.2-0.1,0.4-0.2,0.6-0.3c0.2-0.1,0.3-0.3,0.4-0.5c0.1-0.1,0.1-0.3,0.1-0.6c0-0.2,0-0.5,0-0.6c0.2-0.1,0.3-0.1,0.5-0.2
			c0.5,1.3,0.7,2,1.2,3.3c-0.2,0.1-0.3,0.1-0.5,0.2c-0.1-0.1-0.2-0.3-0.4-0.5s-0.3-0.3-0.5-0.4c-0.2-0.1-0.4-0.1-0.6-0.1
			c-0.2,0-0.4,0.1-0.7,0.2c-0.4,0.1-0.6,0.2-0.9,0.3c0.3,0.9,0.5,1.4,0.8,2.3c0.1,0.2,0.2,0.4,0.3,0.5c0.1,0.1,0.2,0.2,0.3,0.2
			c0.1,0,0.3,0,0.5,0c0.2,0,0.5-0.1,0.8-0.2c0.2-0.1,0.3-0.1,0.5-0.2s0.4-0.2,0.5-0.2c0.2-0.1,0.3-0.2,0.5-0.3
			c0.1-0.1,0.2-0.2,0.3-0.3c0.1-0.3,0.3-0.6,0.4-1.1c0.1-0.5,0.2-0.8,0.2-1c0.2-0.1,0.3-0.1,0.5-0.2c0.3,1,0.4,1.5,0.7,2.5
			c-3.4,1.3-5.2,1.8-8.6,2.9c-0.1-0.2-0.1-0.3-0.1-0.4c0.1,0,0.3-0.1,0.5-0.2c0.2-0.1,0.3-0.2,0.4-0.2c0.1-0.1,0.2-0.2,0.3-0.3
			c0-0.1,0-0.2,0-0.4c-0.7-2.2-1.1-3.4-1.8-5.6c0-0.1-0.1-0.2-0.2-0.3c-0.1-0.1-0.2-0.1-0.4-0.1c-0.1,0-0.3,0-0.5,0
			c-0.2,0-0.4,0-0.5,0.1c-0.1-0.2-0.1-0.3-0.1-0.4c3.1-1,4.7-1.5,7.8-2.6C519.9,618.7,520.1,619.1,520.4,619.9z"/>
		<path class="st0" d="M527.8,624c-0.6,0.2-1.1,0.4-1.6,0.4c-0.5,0.1-1,0.1-1.4,0.1c-0.1,0.2-0.2,0.3-0.3,0.6
			c-0.2,0.1-0.3,0.1-0.5,0.2c-0.5-1.1-0.7-1.7-1.1-2.8c0.2-0.1,0.3-0.1,0.5-0.2c0.2,0.2,0.5,0.4,0.8,0.7c0.3,0.2,0.6,0.4,1,0.5
			c0.4,0.1,0.7,0.2,1.1,0.3c0.4,0,0.8,0,1.2-0.2c0.6-0.2,1-0.5,1.2-0.9c0.2-0.4,0.2-0.7,0.1-1.1c-0.1-0.3-0.4-0.5-0.7-0.6
			c-0.3-0.1-0.8-0.1-1.4,0c-0.4,0-0.7,0.1-1.1,0.1c-0.3,0-0.6,0.1-0.9,0.1c-0.7,0-1.2-0.1-1.7-0.4c-0.4-0.3-0.7-0.7-0.9-1.1
			c-0.1-0.3-0.1-0.6-0.1-1s0.2-0.7,0.4-1c0.2-0.3,0.5-0.6,0.8-0.9s0.8-0.5,1.3-0.7c0.5-0.2,0.9-0.3,1.4-0.4c0.5-0.1,0.8-0.1,1.1,0
			c0.1-0.2,0.1-0.3,0.2-0.5c0.2-0.1,0.3-0.1,0.5-0.2c0.5,1,0.7,1.6,1.2,2.6c-0.2,0.1-0.3,0.1-0.5,0.2c-0.2-0.2-0.5-0.5-0.8-0.7
			c-0.3-0.2-0.6-0.4-0.8-0.5c-0.3-0.1-0.6-0.2-0.9-0.2c-0.3,0-0.6,0-1,0.2c-0.4,0.2-0.8,0.4-0.9,0.8c-0.2,0.3-0.2,0.7-0.1,1
			c0.1,0.3,0.3,0.5,0.7,0.6c0.3,0.1,0.8,0.1,1.3,0.1c0.3,0,0.7-0.1,1-0.1c0.4,0,0.7-0.1,1-0.1c0.7,0,1.3,0,1.7,0.3
			c0.5,0.2,0.8,0.6,1,1.1c0.1,0.3,0.2,0.7,0.1,1.1c0,0.4-0.2,0.7-0.4,1.1c-0.2,0.4-0.6,0.7-1,1C528.9,623.4,528.4,623.7,527.8,624z"
			/>
		<path class="st0" d="M537.9,612.7c-0.2,0.1-0.3,0.1-0.5,0.2c-0.3-0.3-0.6-0.5-1.1-0.7c-0.4-0.2-0.8-0.3-1-0.2
			c-0.1,0-0.3,0.1-0.5,0.2c-0.2,0.1-0.4,0.1-0.5,0.2c-0.1,0.1-0.2,0.1-0.3,0.1c1.1,2.4,1.7,3.5,2.8,5.9c0.1,0.1,0.1,0.2,0.2,0.3
			c0.1,0.1,0.2,0.1,0.4,0.1c0.1,0,0.3-0.1,0.5-0.1c0.2-0.1,0.4-0.1,0.5-0.2c0.1,0.2,0.1,0.2,0.2,0.4c-2,0.9-2.9,1.4-4.9,2.3
			c-0.1-0.2-0.1-0.3-0.2-0.4c0.1-0.1,0.3-0.2,0.5-0.3c0.2-0.1,0.3-0.2,0.4-0.3c0.1-0.1,0.2-0.3,0.2-0.4s0-0.2-0.1-0.4
			c-1.1-2.4-1.6-3.6-2.7-6c-0.1,0.1-0.2,0.1-0.3,0.1c-0.1,0.1-0.3,0.1-0.5,0.2c-0.2,0.1-0.3,0.2-0.5,0.2c-0.2,0.1-0.4,0.4-0.5,0.9
			c-0.1,0.5-0.2,0.9-0.1,1.3c-0.2,0.1-0.3,0.1-0.5,0.2c-0.4-0.9-0.6-1.3-0.9-2.2c3.3-1.4,4.9-2.2,8.2-3.8
			C537.3,611.4,537.5,611.8,537.9,612.7z"/>
		<path class="st0" d="M550.9,612.4c-1.3,0.8-2,1.1-3.3,1.8c-1-0.4-1.8-0.8-2.4-1c-0.6-0.2-1.3-0.5-2.2-0.8
			c-0.1,0.1-0.2,0.1-0.3,0.2c0.5,0.9,0.7,1.3,1.2,2.2c0.1,0.1,0.1,0.2,0.2,0.3s0.2,0.1,0.4,0.1c0.1,0,0.2,0,0.4-0.1s0.3-0.1,0.5-0.2
			c0.1,0.2,0.1,0.2,0.2,0.4c-1.8,1-2.8,1.5-4.6,2.4c-0.1-0.2-0.1-0.2-0.2-0.4c0.1-0.1,0.3-0.2,0.4-0.3c0.2-0.1,0.3-0.2,0.4-0.3
			c0.1-0.1,0.2-0.3,0.2-0.4c0-0.1,0-0.2-0.1-0.4c-1.1-2.1-1.6-3.1-2.7-5.2c-0.1-0.1-0.1-0.2-0.2-0.3c-0.1-0.1-0.2-0.1-0.4-0.1
			c-0.1,0-0.3,0.1-0.5,0.1c-0.2,0.1-0.3,0.1-0.4,0.1c-0.1-0.2-0.1-0.2-0.2-0.4c1.9-0.9,2.8-1.4,4.6-2.4c1-0.6,1.9-0.8,2.6-0.9
			c0.7,0,1.2,0.3,1.5,0.8c0.3,0.5,0.4,1,0.2,1.5s-0.5,1-1.1,1.6c0.4,0.2,0.9,0.3,1.5,0.5c0.6,0.2,1.2,0.4,1.8,0.6
			c0.2,0.1,0.5,0.1,0.8,0.2c0.3,0.1,0.6,0.1,0.8,0c0.1,0,0.2-0.1,0.4-0.1c0.2-0.1,0.3-0.1,0.3-0.1
			C550.8,612.2,550.9,612.3,550.9,612.4z M543.9,609.3c-0.3-0.5-0.6-0.8-1-0.8c-0.4-0.1-0.9,0.1-1.5,0.4c-0.2,0.1-0.3,0.1-0.5,0.2
			c0.6,1.2,1,1.8,1.6,3.1c0.2-0.1,0.3-0.1,0.5-0.2c0.6-0.3,1-0.7,1.1-1.1C544.3,610.4,544.2,609.9,543.9,609.3z"/>
		<path class="st0" d="M560,606.8c-1.8,1.2-2.7,1.8-4.5,2.9c-0.1-0.2-0.1-0.2-0.2-0.4c0.2-0.1,0.4-0.3,0.7-0.6
			c0.3-0.2,0.4-0.4,0.3-0.5c0,0,0-0.1-0.1-0.1c0,0-0.1-0.1-0.1-0.1c-0.6-0.4-1-0.6-1.6-1c-1.1,0.7-1.7,1.1-2.8,1.7
			c0,0.2,0,0.4,0.1,0.6c0,0.2,0.1,0.4,0.1,0.6c0,0.2,0.1,0.4,0.1,0.5s0.1,0.2,0.1,0.2c0.1,0.1,0.2,0.1,0.4,0.1c0.2,0,0.6-0.2,1-0.4
			c0.1,0.2,0.1,0.2,0.2,0.4c-1.4,0.8-2.1,1.2-3.5,2c-0.1-0.2-0.1-0.2-0.2-0.4c0.1-0.1,0.3-0.2,0.4-0.3c0.1-0.1,0.3-0.2,0.3-0.3
			c0.1-0.2,0.2-0.4,0.2-0.5c0-0.2,0.1-0.4,0-0.6c-0.1-1.2-0.2-2.4-0.3-3.6s-0.3-2.5-0.4-4c0.4-0.3,0.7-0.4,1.1-0.7
			c1.7,1.1,3.1,2,4.1,2.7c1,0.7,1.9,1.2,2.6,1.6c0.1,0.1,0.2,0.1,0.4,0.1c0.1,0,0.3,0,0.5,0c0.1,0,0.3-0.1,0.5-0.1s0.3-0.1,0.4-0.2
			C559.8,606.6,559.9,606.7,560,606.8z M553.9,606.7c-1.1-0.7-1.7-1.1-2.7-1.8c0.2,1.3,0.2,2,0.4,3.3
			C552.5,607.6,553,607.3,553.9,606.7z"/>
	</g>
</g>
<g>
	<g>
		<path class="st0" d="M283.3,535.2c0.9-0.5,1.4-0.7,2.4-1.2c1.8,3,2.8,4.5,4.8,7.4c-0.2,0.1-0.2,0.2-0.4,0.3
			c-0.1-0.1-0.2-0.3-0.4-0.4s-0.2-0.3-0.3-0.3c-0.1-0.1-0.3-0.2-0.4-0.2c-0.1,0-0.2,0-0.4,0.1c-1.9,1.3-2.9,2-4.8,3.3
			c-0.1,0.1-0.2,0.2-0.2,0.3s0,0.2,0,0.5c0,0.2,0.1,0.3,0.2,0.5c0.1,0.2,0.2,0.3,0.2,0.4c-0.2,0.1-0.2,0.2-0.4,0.3
			c-1.3-1.8-1.9-2.7-3.1-4.6c0.2-0.1,0.2-0.1,0.4-0.2c0.1,0.1,0.2,0.3,0.3,0.4c0.1,0.2,0.3,0.3,0.4,0.4c0.1,0.1,0.3,0.2,0.4,0.2
			c0.1,0,0.2,0,0.4-0.1c1.8-1.2,2.7-1.8,4.6-3c0.2-0.1,0.4-0.3,0.5-0.4c0.1-0.1,0.1-0.2,0.1-0.4c0-0.1-0.1-0.3-0.1-0.5
			c-0.1-0.2-0.2-0.4-0.4-0.7c-0.2-0.3-0.4-0.6-0.6-0.9s-0.4-0.4-0.6-0.5c-0.3-0.1-0.7-0.1-1.1-0.2c-0.4,0-0.8,0-1.2,0
			C283.5,535.5,283.4,535.4,283.3,535.2z"/>
		<path class="st0" d="M280.3,524.4c1,1.8,1.4,2.7,2.5,4.6c-0.2,0.1-0.2,0.1-0.4,0.2c-0.1-0.2-0.3-0.4-0.5-0.7
			c-0.2-0.3-0.4-0.4-0.4-0.3c0,0-0.1,0-0.1,0.1c0,0-0.1,0.1-0.1,0.1c-0.4,0.6-0.7,0.9-1.1,1.6c0.7,1.2,1,1.7,1.7,2.9
			c0.2,0,0.4,0,0.6-0.1s0.4-0.1,0.6-0.1c0.2,0,0.4-0.1,0.5-0.1c0.1,0,0.2-0.1,0.2-0.1c0.1-0.1,0.1-0.2,0.1-0.4c0-0.2-0.2-0.6-0.4-1
			c0.2-0.1,0.2-0.1,0.4-0.2c0.8,1.4,1.2,2,2,3.4c-0.2,0.1-0.2,0.1-0.4,0.2c-0.1-0.1-0.2-0.3-0.3-0.4c-0.1-0.1-0.2-0.2-0.3-0.3
			c-0.2-0.1-0.4-0.2-0.5-0.2c-0.2,0-0.4,0-0.6,0c-1.2,0.1-2.4,0.2-3.6,0.3c-1.2,0.1-2.6,0.2-4.1,0.3c-0.3-0.5-0.4-0.7-0.7-1.2
			c1.2-1.7,2.2-3.1,2.9-4c0.7-1,1.3-1.8,1.8-2.4c0.1-0.1,0.1-0.2,0.2-0.3c0-0.1,0.1-0.3,0.1-0.5c0-0.1,0-0.3-0.1-0.5
			c0-0.2-0.1-0.3-0.2-0.4C280.1,524.6,280.2,524.5,280.3,524.4z M279.7,530.5c-0.8,1.1-1.2,1.6-1.9,2.7c1.3-0.1,2-0.2,3.3-0.3
			C280.6,531.9,280.3,531.5,279.7,530.5z"/>
		<path class="st0" d="M271,518.9c0.1,0.2,0.1,0.3,0.2,0.5c-0.3,0.3-0.5,0.6-0.8,1.1c-0.2,0.5-0.3,0.8-0.2,1.1
			c0,0.1,0.1,0.3,0.2,0.5c0.1,0.2,0.2,0.4,0.2,0.5c0.1,0.1,0.1,0.2,0.1,0.3c2.4-1.1,3.5-1.7,5.9-2.8c0.1-0.1,0.2-0.1,0.3-0.2
			c0.1-0.1,0.1-0.2,0.1-0.4c0-0.1,0-0.3-0.1-0.5c-0.1-0.2-0.1-0.4-0.2-0.5c0.2-0.1,0.2-0.1,0.4-0.2c0.9,1.9,1.3,2.9,2.3,4.8
			c-0.2,0.1-0.2,0.1-0.4,0.2c-0.1-0.1-0.2-0.3-0.3-0.5c-0.1-0.2-0.2-0.3-0.3-0.4c-0.1-0.1-0.3-0.2-0.4-0.2s-0.2,0-0.4,0.1
			c-2.4,1.2-3.5,1.7-5.9,2.9c0.1,0.1,0.1,0.2,0.1,0.3c0.1,0.1,0.2,0.3,0.3,0.5c0.1,0.2,0.2,0.4,0.3,0.5c0.1,0.2,0.5,0.4,1,0.5
			c0.5,0.1,1,0.1,1.3,0.1c0.1,0.2,0.1,0.3,0.2,0.5c-0.8,0.4-1.3,0.7-2.1,1.1c-1.8-3.4-2.6-5.2-4.2-8.7
			C269.7,519.4,270.2,519.2,271,518.9z"/>
		<path class="st0" d="M267.3,510.4c0.1,0.2,0.1,0.3,0.2,0.5c-0.2,0.2-0.5,0.6-0.6,1s-0.2,0.8-0.2,1.1c0,0.1,0.1,0.3,0.2,0.6
			s0.2,0.4,0.2,0.6c0.2,0.5,0.3,0.8,0.5,1.3c1.2-0.5,1.8-0.7,3-1.2c-0.2-0.4-0.2-0.6-0.4-0.9c-0.1-0.2-0.2-0.4-0.3-0.6
			c-0.1-0.2-0.3-0.3-0.5-0.4c-0.1-0.1-0.3-0.1-0.6-0.1c-0.3,0-0.5,0-0.6,0c-0.1-0.2-0.1-0.3-0.2-0.5c1.3-0.5,1.9-0.8,3.2-1.3
			c0.1,0.2,0.1,0.3,0.2,0.5c-0.1,0.1-0.3,0.2-0.5,0.4c-0.2,0.2-0.3,0.4-0.4,0.5c-0.1,0.2-0.1,0.4-0.1,0.6s0.1,0.4,0.2,0.7
			c0.1,0.4,0.2,0.6,0.4,0.9c0.9-0.4,1.3-0.5,2.2-0.9c0.2-0.1,0.4-0.2,0.5-0.3c0.1-0.1,0.2-0.2,0.2-0.3c0-0.1,0-0.3,0-0.5
			s-0.1-0.4-0.3-0.7c-0.1-0.1-0.1-0.3-0.2-0.5c-0.1-0.2-0.2-0.4-0.2-0.5c-0.1-0.2-0.2-0.3-0.3-0.5s-0.2-0.2-0.3-0.3
			c-0.3-0.1-0.6-0.3-1.1-0.4c-0.5-0.1-0.8-0.2-1-0.2c-0.1-0.2-0.1-0.3-0.2-0.5c1-0.3,1.5-0.4,2.5-0.7c1.2,3.3,1.9,4.9,3.3,8.2
			c-0.2,0.1-0.3,0.1-0.4,0.2c-0.1-0.1-0.1-0.3-0.2-0.4s-0.2-0.3-0.3-0.4c-0.1-0.1-0.2-0.2-0.4-0.2c-0.1,0-0.2,0-0.4,0.1
			c-2.2,0.9-3.2,1.4-5.4,2.3c-0.1,0.1-0.2,0.1-0.3,0.2c-0.1,0.1-0.1,0.2-0.1,0.4c0,0.1,0,0.3,0.1,0.5c0.1,0.2,0.1,0.4,0.1,0.5
			c-0.2,0.1-0.3,0.1-0.4,0.2c-1.4-3.2-2.1-4.9-3.3-8.2C266.1,510.8,266.5,510.7,267.3,510.4z"/>
		<path class="st0" d="M268.3,493.3c0.4,1.4,0.6,2.1,1,3.5c-0.6,0.8-1.1,1.5-1.5,2.1c-0.4,0.5-0.8,1.2-1.2,2c0,0.1,0.1,0.2,0.1,0.4
			c1-0.3,1.4-0.5,2.4-0.8c0.1,0,0.2-0.1,0.3-0.2s0.1-0.2,0.1-0.4c0-0.1,0-0.2,0-0.4c0-0.2,0-0.3-0.1-0.5c0.2-0.1,0.3-0.1,0.4-0.1
			c0.6,1.9,0.9,2.9,1.5,4.8c-0.2,0.1-0.3,0.1-0.4,0.1c-0.1-0.1-0.1-0.3-0.2-0.5s-0.2-0.3-0.2-0.4c-0.1-0.1-0.2-0.2-0.3-0.2
			c-0.1,0-0.2,0-0.4,0c-2.2,0.7-3.3,1.1-5.6,1.8c-0.1,0-0.2,0.1-0.3,0.2s-0.1,0.2-0.1,0.4c0,0.2,0,0.3,0,0.5s0.1,0.4,0.1,0.5
			c-0.2,0.1-0.3,0.1-0.4,0.1c-0.7-2.1-1.1-3.2-1.7-5.3c-0.4-1.2-0.5-2.1-0.3-2.9c0.1-0.7,0.5-1.1,1.2-1.3c0.6-0.2,1.1-0.1,1.5,0.2
			c0.4,0.3,0.9,0.8,1.3,1.5c0.2-0.4,0.5-0.8,0.8-1.4c0.3-0.5,0.7-1,1-1.6c0.1-0.2,0.2-0.4,0.4-0.7s0.2-0.5,0.2-0.7
			c0-0.1,0-0.2,0-0.4s0-0.3-0.1-0.3C268,493.3,268.1,493.3,268.3,493.3z M263.6,499.4c-0.5,0.2-0.9,0.4-1,0.9
			c-0.1,0.4-0.1,1,0.1,1.6c0.1,0.2,0.1,0.3,0.2,0.5c1.3-0.4,2-0.6,3.3-1c-0.1-0.2-0.1-0.3-0.2-0.5c-0.2-0.6-0.5-1.1-0.9-1.4
			C264.7,499.2,264.2,499.2,263.6,499.4z"/>
		<path class="st0" d="M259.1,486.3c0.3-0.6,0.6-1,1.1-1.4c0.5-0.4,1-0.6,1.7-0.8c0.6-0.1,1.2-0.1,1.8,0s1.1,0.4,1.6,0.7
			c0.5,0.4,0.9,0.8,1.3,1.4s0.6,1.2,0.8,2.1c0.2,0.7,0.2,1.3,0.2,2c0,0.6-0.2,1.2-0.5,1.8c-0.2,0.5-0.6,1-1,1.4
			c-0.4,0.4-1,0.7-1.6,0.9c-0.7,0.2-1.3,0.2-1.9,0.1s-1.2-0.4-1.7-0.7c-0.5-0.4-0.9-0.8-1.3-1.4s-0.6-1.3-0.8-2
			c-0.2-0.7-0.2-1.4-0.2-2.1C258.6,487.4,258.8,486.8,259.1,486.3z M265.2,486.8c-0.4-0.1-0.8-0.2-1.3-0.2c-0.5,0-1,0.1-1.5,0.2
			c-0.5,0.1-0.9,0.2-1.3,0.4s-0.8,0.4-1.1,0.7c-0.3,0.3-0.5,0.6-0.7,1c-0.1,0.4-0.2,0.8,0,1.3c0.2,0.8,0.7,1.4,1.4,1.6
			c0.8,0.3,1.7,0.2,2.9,0c0.5-0.1,1-0.3,1.4-0.5c0.4-0.2,0.8-0.4,1.1-0.7c0.3-0.3,0.5-0.6,0.6-0.9c0.1-0.3,0.1-0.7,0-1.2
			c-0.1-0.4-0.3-0.8-0.5-1C265.9,487.1,265.6,486.9,265.2,486.8z"/>
		<path class="st0" d="M264,469.6c0.2,2,0.3,3,0.6,5.1c-0.2,0-0.3,0-0.5,0.1c0-0.1-0.1-0.3-0.1-0.5c-0.1-0.2-0.1-0.4-0.1-0.4
			c-0.1-0.2-0.2-0.3-0.3-0.3c-0.1-0.1-0.2-0.1-0.4-0.1c-2.5,0.3-3.7,0.5-6.2,0.8c3.1,1,4.6,1.4,7.7,2.3c0,0.3,0.1,0.5,0.1,0.8
			c-0.1,0.1-0.4,0.2-0.7,0.4c-0.4,0.2-0.6,0.4-0.8,0.5c-2.1,1.3-3.2,2-5.2,3.3c2-0.3,3-0.5,5-0.9c0.5-0.1,0.8-0.2,1.1-0.3
			c0.2-0.1,0.4-0.3,0.5-0.4c0.1-0.1,0.1-0.3,0.1-0.6c0-0.3,0-0.5,0-0.6c0.2,0,0.3,0,0.5-0.1c0.3,1.6,0.4,2.4,0.7,4
			c-0.2,0-0.3,0.1-0.4,0.1c0-0.1-0.1-0.3-0.2-0.5c-0.1-0.2-0.2-0.4-0.3-0.6c-0.1-0.2-0.3-0.2-0.6-0.3c-0.3,0-0.6,0-1.1,0.1
			c-1.6,0.3-2.4,0.4-4.1,0.7c-0.2,0-0.4,0.1-0.6,0.2c-0.2,0.1-0.3,0.2-0.3,0.4c-0.1,0.2-0.1,0.4-0.1,0.6s0,0.4,0,0.6
			c-0.2,0-0.3,0.1-0.4,0.1c-0.3-1.8-0.5-2.7-0.8-4.5c2-1.3,3-1.9,5.1-3.2c-1.9-0.5-2.8-0.8-4.7-1.4c-0.2,0-0.4-0.1-0.6-0.1
			c-0.2,0-0.4,0-0.5,0c-0.2-1.7-0.3-2.6-0.5-4.4c0.2,0,0.3,0,0.5,0c0,0.1,0.1,0.3,0.1,0.5s0.1,0.3,0.1,0.5c0.1,0.2,0.2,0.3,0.3,0.3
			c0.1,0,0.2,0.1,0.4,0c2.3-0.3,3.5-0.4,5.9-0.6c0.1,0,0.3-0.1,0.3-0.1c0.1-0.1,0.2-0.2,0.2-0.4c0-0.1,0-0.2,0.1-0.4s0-0.4,0-0.5
			C263.7,469.6,263.8,469.6,264,469.6z"/>
		<path class="st0" d="M263.3,458.5c0.1,2.1,0.1,3.1,0.2,5.1c-0.2,0-0.3,0-0.5,0c0-0.2-0.1-0.5-0.2-0.8c-0.1-0.3-0.2-0.5-0.3-0.5
			c0,0-0.1,0-0.1,0c0,0-0.1,0-0.2,0.1c-0.7,0.4-1,0.5-1.7,0.9c0.1,1.3,0.1,2,0.2,3.3c0.2,0.1,0.4,0.1,0.6,0.2
			c0.2,0.1,0.4,0.1,0.6,0.2c0.2,0.1,0.4,0.1,0.5,0.1c0.1,0,0.2,0,0.2,0c0.1,0,0.2-0.1,0.3-0.3c0.1-0.2,0.1-0.6,0.1-1.1
			c0.2,0,0.3,0,0.5,0c0.1,1.5,0.2,2.3,0.3,3.8c-0.2,0-0.3,0-0.5,0c0-0.1-0.1-0.3-0.1-0.5s-0.1-0.3-0.2-0.4c-0.1-0.2-0.2-0.3-0.4-0.4
			c-0.1-0.1-0.3-0.2-0.5-0.3c-1.1-0.4-2.3-0.8-3.4-1.3s-2.4-0.9-3.8-1.5c0-0.6-0.1-0.8-0.1-1.4c1.8-1,3.3-1.8,4.3-2.4
			c1.1-0.6,2-1,2.7-1.4c0.1-0.1,0.2-0.1,0.3-0.2c0.1-0.1,0.2-0.2,0.3-0.4c0.1-0.1,0.1-0.3,0.1-0.4c0-0.2,0-0.3,0-0.4
			C263,458.5,263.1,458.5,263.3,458.5z M260.1,463.6c-1.2,0.6-1.7,0.9-2.9,1.6c1.2,0.5,1.9,0.7,3.1,1.2
			C260.2,465.3,260.2,464.7,260.1,463.6z"/>
		<path class="st0" d="M255.5,447.2c0,0.1,0,0.3,0,0.6c0,0.2,0.1,0.5,0.2,0.7c0.1,0.2,0.3,0.3,0.5,0.4s0.6,0.1,1.1,0.1
			c2.4,0.1,3.6,0.1,5.9,0.2c0,0.5,0,0.7,0,1.2c-2.6,2.3-3.9,3.5-6.5,6c1.6,0,2.3,0,3.9-0.1c0.5,0,0.9,0,1.1-0.1
			c0.3-0.1,0.4-0.2,0.5-0.4c0.1-0.1,0.2-0.3,0.2-0.6c0.1-0.3,0.1-0.5,0.1-0.6c0.2,0,0.3,0,0.5,0c0,1.6,0,2.4,0.1,4.1
			c-0.2,0-0.3,0-0.5,0c0-0.2-0.1-0.4-0.1-0.6c-0.1-0.2-0.1-0.4-0.2-0.6c-0.1-0.2-0.3-0.3-0.5-0.3c-0.2-0.1-0.6-0.1-1.2-0.1
			c-1.6,0-2.4,0-3.9,0.1c-0.2,0-0.4,0-0.6,0.1c-0.2,0.1-0.3,0.2-0.4,0.3c-0.1,0.2-0.2,0.4-0.3,0.6c-0.1,0.2-0.1,0.5-0.2,0.7
			c-0.2,0-0.3,0-0.5,0c0-1.5-0.1-2.2-0.1-3.7c2.2-2.2,3.4-3.2,5.7-5.3c-1.3,0-1.9-0.1-3.1-0.1c-0.5,0-0.9,0-1.1,0.1
			c-0.2,0.1-0.4,0.2-0.6,0.4c-0.1,0.1-0.2,0.3-0.2,0.6c-0.1,0.3-0.1,0.5-0.1,0.6c-0.2,0-0.3,0-0.5,0c0-1.7,0.1-2.6,0.1-4.3
			C255.2,447.2,255.3,447.2,255.5,447.2z"/>
		<path class="st0" d="M258.1,437.5c0,0.2,0,0.3-0.1,0.5c-0.4,0.1-0.8,0.3-1.2,0.6c-0.4,0.3-0.7,0.6-0.7,0.8c0,0.1-0.1,0.3-0.1,0.5
			c0,0.2-0.1,0.4-0.1,0.6c0,0.1,0,0.2,0,0.3c2.6,0.2,3.9,0.3,6.5,0.5c0.1,0,0.3,0,0.4-0.1s0.2-0.2,0.3-0.3c0-0.1,0.1-0.3,0.1-0.5
			c0.1-0.2,0.1-0.4,0.1-0.5c0.2,0,0.3,0,0.5,0c-0.2,2.1-0.3,3.2-0.4,5.3c-0.2,0-0.3,0-0.5,0c0-0.1,0-0.3,0-0.5c0-0.2,0-0.4,0-0.5
			c-0.1-0.2-0.1-0.3-0.2-0.4c-0.1-0.1-0.2-0.1-0.4-0.1c-2.6-0.2-3.9-0.3-6.6-0.4c0,0.1,0,0.2,0,0.3c0,0.2,0,0.3,0,0.6
			c0,0.2,0,0.4,0,0.6c0,0.3,0.2,0.6,0.6,0.9c0.4,0.3,0.8,0.6,1.1,0.7c0,0.2,0,0.3,0,0.5c-1,0-1.4-0.1-2.4-0.1
			c0.2-3.9,0.3-5.8,0.7-9.7C256.7,437.4,257.2,437.4,258.1,437.5z"/>
		<path class="st0" d="M264.8,432.4c-0.3,2.1-0.4,3.1-0.7,5.2c-0.2,0-0.3,0-0.5,0c0-0.1,0-0.3,0-0.5c0-0.2,0-0.4,0-0.5
			c0-0.2-0.1-0.3-0.2-0.4c-0.1-0.1-0.2-0.1-0.4-0.1c-2.3-0.3-3.5-0.4-5.9-0.7c-0.1,0-0.3,0-0.4,0c-0.1,0-0.2,0.2-0.3,0.3
			c-0.1,0.1-0.1,0.3-0.2,0.5c-0.1,0.2-0.1,0.4-0.1,0.6c-0.2,0-0.3,0-0.5,0c0.2-2.2,0.4-3.3,0.7-5.5c0.2,0,0.3,0,0.5,0.1
			c0,0.1,0,0.3,0,0.5c0,0.2,0,0.4,0,0.5c0,0.2,0.1,0.3,0.2,0.4c0.1,0.1,0.2,0.1,0.4,0.1c2.3,0.3,3.5,0.5,5.8,0.8c0.1,0,0.3,0,0.4,0
			s0.2-0.2,0.3-0.3c0-0.1,0.1-0.2,0.2-0.4c0.1-0.2,0.1-0.4,0.1-0.5C264.5,432.4,264.6,432.4,264.8,432.4z"/>
		<path class="st0" d="M265.9,426.6c-0.1,0.7-0.3,1.3-0.6,1.9c-0.3,0.6-0.7,1-1.1,1.4c-0.4,0.4-0.9,0.7-1.5,0.8
			c-0.6,0.2-1.2,0.2-1.8,0.1c-0.6-0.1-1.2-0.3-1.7-0.7c-0.5-0.3-0.9-0.8-1.2-1.3c-0.3-0.5-0.5-1.2-0.6-1.9c-0.1-0.7-0.1-1.4,0.1-2.2
			c0.1-0.6,0.3-1,0.5-1.5c0.2-0.4,0.4-0.8,0.6-1.1c-0.1-0.2-0.1-0.3-0.2-0.5c0-0.2,0.1-0.4,0.1-0.6c1.2,0.2,1.8,0.3,3,0.6
			c-0.1,0.2-0.1,0.4-0.1,0.6c-1,0.2-1.7,0.4-2.3,0.8c-0.5,0.4-0.9,1-1,1.7c-0.2,0.9,0,1.6,0.6,2.2c0.6,0.6,1.4,0.9,2.6,1.1
			c0.7,0.1,1.2,0.1,1.7,0.1s0.9-0.2,1.2-0.4c0.3-0.2,0.6-0.5,0.8-0.8c0.2-0.3,0.3-0.7,0.4-1.1c0.1-0.6,0.1-1.2-0.1-1.7
			c-0.2-0.5-0.5-1.1-1-1.6c0.2-0.2,0.3-0.3,0.4-0.5c0.3,0.3,0.6,0.5,0.8,0.8c0.2,0.3,0.4,0.6,0.5,1c0.1,0.4,0.2,0.8,0.3,1.3
			C266.1,425.6,266,426.1,265.9,426.6z"/>
		<path class="st0" d="M284.4,516.9c0.1-0.6,0.4-1.1,0.8-1.5s0.9-0.8,1.5-1.1c0.5-0.3,1.1-0.4,1.7-0.4c0.6,0,1.1,0,1.7,0.2
			c0.5,0.2,1,0.5,1.5,0.9c0.5,0.4,0.8,0.9,1.2,1.6c0.3,0.6,0.5,1.1,0.5,1.7c0.1,0.6,0.1,1.2-0.1,1.7c-0.1,0.5-0.4,1.1-0.7,1.5
			c-0.3,0.5-0.8,0.9-1.4,1.2c-0.6,0.3-1.2,0.5-1.8,0.6s-1.2,0-1.7-0.2c-0.5-0.2-1.1-0.5-1.5-1c-0.5-0.4-0.9-1-1.2-1.6
			c-0.3-0.6-0.5-1.2-0.6-1.8C284.2,518.1,284.3,517.5,284.4,516.9z M290.5,515.8c-0.4,0-0.8,0.1-1.3,0.2c-0.4,0.1-0.9,0.3-1.4,0.6
			c-0.4,0.2-0.8,0.4-1.2,0.7c-0.4,0.3-0.7,0.6-0.9,0.9c-0.2,0.3-0.4,0.7-0.4,1c-0.1,0.4,0,0.8,0.2,1.2c0.3,0.7,0.9,1.1,1.7,1.1
			c0.8,0,1.7-0.2,2.8-0.8c0.5-0.2,0.9-0.5,1.2-0.8c0.4-0.3,0.7-0.6,0.9-0.9c0.2-0.3,0.4-0.7,0.4-1c0-0.3,0-0.7-0.2-1.1
			c-0.2-0.4-0.4-0.6-0.7-0.8C291.2,515.9,290.8,515.8,290.5,515.8z"/>
		<path class="st0" d="M286.4,502.7c0.5,1.2,0.7,1.8,1.2,3.1c-0.6,0.8-1,1.5-1.3,2.1c-0.3,0.5-0.7,1.2-1,2c0.1,0.1,0.1,0.2,0.1,0.3
			c0.9-0.4,1.4-0.6,2.3-1c0.1-0.1,0.2-0.1,0.3-0.2c0.1-0.1,0.1-0.2,0.1-0.4c0-0.1,0-0.2-0.1-0.4c0-0.2-0.1-0.3-0.1-0.4
			c0.2-0.1,0.3-0.1,0.4-0.2c0.7,1.7,1.1,2.5,1.8,4.2c-0.2,0.1-0.2,0.1-0.4,0.2c-0.1-0.1-0.1-0.2-0.2-0.4c-0.1-0.2-0.2-0.3-0.2-0.3
			c-0.1-0.1-0.2-0.2-0.3-0.2c-0.1,0-0.2,0-0.4,0.1c-2.1,1-3.2,1.4-5.4,2.4c-0.1,0.1-0.2,0.1-0.3,0.2c-0.1,0.1-0.1,0.2-0.1,0.4
			c0,0.1,0,0.3,0.1,0.5c0,0.2,0.1,0.3,0.1,0.4c-0.2,0.1-0.2,0.1-0.4,0.2c-0.8-1.9-1.3-2.8-2-4.7c-0.4-1-0.6-1.9-0.5-2.6
			s0.4-1.1,1.1-1.4c0.5-0.2,1-0.2,1.5,0c0.5,0.2,0.9,0.6,1.4,1.2c0.2-0.4,0.5-0.8,0.7-1.4s0.6-1,0.9-1.6c0.1-0.2,0.2-0.4,0.3-0.7
			c0.1-0.3,0.2-0.5,0.2-0.7c0-0.1,0-0.2-0.1-0.4c0-0.1-0.1-0.2-0.1-0.3C286.1,502.8,286.2,502.7,286.4,502.7z M282.1,508.8
			c-0.5,0.2-0.8,0.5-0.9,0.9c-0.1,0.4,0,0.9,0.2,1.5c0.1,0.2,0.1,0.3,0.2,0.5c1.3-0.5,1.9-0.8,3.2-1.4c-0.1-0.2-0.1-0.3-0.2-0.4
			c-0.2-0.6-0.6-0.9-1-1.1S282.7,508.6,282.1,508.8z"/>
		<path class="st0" d="M285.1,498.4c0.2,0.6,0.3,1.2,0.3,1.8c0,0.6-0.1,1.1-0.3,1.6c-0.2,0.5-0.5,1-1,1.4c-0.4,0.4-0.9,0.7-1.6,1
			c-0.6,0.2-1.2,0.3-1.8,0.3s-1.2-0.2-1.7-0.5c-0.5-0.3-1-0.7-1.4-1.2c-0.4-0.5-0.7-1.1-0.9-1.7c-0.2-0.5-0.2-0.9-0.3-1.4
			c0-0.4,0-0.8,0-1.1c-0.2-0.1-0.3-0.2-0.4-0.3c-0.1-0.2-0.1-0.3-0.2-0.5c1.2-0.4,1.7-0.6,2.9-1c0.1,0.2,0.1,0.3,0.2,0.5
			c-0.8,0.6-1.3,1.1-1.6,1.7c-0.3,0.6-0.3,1.1-0.1,1.7c0.3,0.8,0.8,1.2,1.5,1.4c0.7,0.2,1.7,0.1,2.8-0.3c0.6-0.2,1.1-0.5,1.5-0.8
			c0.4-0.3,0.7-0.6,0.9-0.9c0.2-0.3,0.3-0.7,0.3-1c0-0.3,0-0.7-0.1-1.1c-0.2-0.5-0.5-1-0.9-1.3c-0.4-0.3-1-0.6-1.7-0.7
			c0.1-0.2,0.1-0.4,0.1-0.6c0.4,0.1,0.7,0.2,1.1,0.3s0.6,0.3,0.9,0.5c0.3,0.2,0.6,0.5,0.8,0.8C284.7,497.5,284.9,497.9,285.1,498.4z
			"/>
		<path class="st0" d="M280.9,484.3c0.4,1.8,0.6,2.7,1.1,4.5c-0.2,0-0.3,0.1-0.4,0.1c0-0.1-0.1-0.2-0.1-0.4
			c-0.1-0.2-0.1-0.3-0.2-0.4c-0.1-0.1-0.2-0.2-0.3-0.2c-0.1,0-0.2,0-0.4,0c-1.1,0.3-1.7,0.4-2.8,0.7c0.4,1.5,0.6,2.2,0.9,3.6
			c1.1-0.3,1.6-0.4,2.7-0.7c0.1,0,0.2-0.1,0.3-0.2s0.1-0.2,0.2-0.4c0-0.1,0-0.2,0-0.4s0-0.3-0.1-0.5c0.2,0,0.3-0.1,0.4-0.1
			c0.5,1.8,0.7,2.7,1.3,4.4c-0.2,0.1-0.3,0.1-0.4,0.1c0-0.1-0.1-0.2-0.2-0.4c-0.1-0.2-0.1-0.3-0.2-0.4c-0.1-0.1-0.2-0.2-0.3-0.2
			c-0.1,0-0.2,0-0.4,0c-2.3,0.7-3.4,1-5.6,1.7c-0.1,0-0.2,0.1-0.3,0.2s-0.1,0.2-0.1,0.4c0,0.1,0,0.3,0,0.5c0,0.2,0,0.3,0.1,0.4
			c-0.2,0.1-0.3,0.1-0.4,0.1c-0.6-1.9-0.8-2.8-1.3-4.7c0.2,0,0.3-0.1,0.4-0.1c0,0.1,0.1,0.3,0.2,0.4c0.1,0.2,0.1,0.3,0.2,0.4
			c0.1,0.1,0.2,0.2,0.3,0.2c0.1,0,0.2,0,0.4,0c1-0.3,1.4-0.4,2.4-0.7c-0.4-1.4-0.6-2.2-1-3.6c-0.9,0.2-1.4,0.4-2.4,0.6
			c-0.1,0-0.2,0.1-0.3,0.2s-0.1,0.2-0.2,0.4c0,0.1,0,0.3,0,0.5c0,0.2,0,0.3,0,0.4c-0.2,0-0.3,0.1-0.4,0.1c-0.5-1.9-0.7-2.8-1.1-4.7
			c0.2,0,0.3-0.1,0.4-0.1c0,0.1,0.1,0.3,0.1,0.4c0.1,0.2,0.1,0.3,0.2,0.4c0.1,0.1,0.2,0.2,0.3,0.3c0.1,0,0.2,0,0.4,0
			c2.3-0.5,3.4-0.8,5.7-1.3c0.1,0,0.2-0.1,0.3-0.2c0.1-0.1,0.1-0.2,0.2-0.4c0-0.1,0-0.2,0-0.4c0-0.2,0-0.3,0-0.5
			C280.6,484.3,280.7,484.3,280.9,484.3z"/>
		<path class="st0" d="M273.2,477c0,0.2,0,0.3,0.1,0.5c-0.3,0.2-0.6,0.4-0.8,0.8c-0.3,0.3-0.4,0.7-0.4,1c0,0.1,0,0.3,0,0.5
			c0,0.2,0.1,0.4,0.1,0.6c0.1,0.5,0.1,0.8,0.2,1.3c1.3-0.2,1.9-0.4,3.1-0.6c-0.1-0.4-0.1-0.5-0.2-0.9c0-0.2-0.1-0.4-0.2-0.6
			c-0.1-0.2-0.2-0.3-0.4-0.4c-0.1-0.1-0.3-0.1-0.5-0.2c-0.2-0.1-0.4-0.1-0.6-0.1c0-0.2,0-0.3-0.1-0.5c1.4-0.2,2.1-0.3,3.4-0.6
			c0,0.2,0,0.3,0.1,0.5c-0.2,0.1-0.3,0.1-0.6,0.3c-0.2,0.1-0.4,0.3-0.5,0.4c-0.1,0.2-0.2,0.3-0.2,0.5c0,0.2,0,0.4,0,0.6
			c0.1,0.4,0.1,0.5,0.2,0.9c0.9-0.2,1.4-0.3,2.4-0.4c0.2,0,0.4-0.1,0.6-0.2c0.1-0.1,0.2-0.2,0.3-0.3c0.1-0.1,0.1-0.3,0.1-0.4
			c0-0.2,0-0.4-0.1-0.7c0-0.1-0.1-0.3-0.1-0.5c0-0.2-0.1-0.4-0.1-0.5c0-0.2-0.1-0.3-0.2-0.5s-0.1-0.2-0.2-0.3
			c-0.2-0.2-0.5-0.3-1-0.5c-0.4-0.2-0.7-0.3-0.9-0.3c0-0.2,0-0.3-0.1-0.4c1-0.1,1.6-0.1,2.6-0.2c0.5,3.2,0.8,4.7,1.5,7.8
			c-0.2,0-0.3,0.1-0.4,0.1c0-0.1-0.1-0.3-0.1-0.4c-0.1-0.2-0.1-0.3-0.2-0.4c-0.1-0.1-0.2-0.2-0.3-0.3c-0.1,0-0.2,0-0.4,0
			c-2.3,0.5-3.4,0.7-5.7,1.2c-0.1,0-0.2,0.1-0.3,0.1s-0.1,0.2-0.2,0.4c0,0.1,0,0.3,0,0.5c0,0.2,0,0.4,0,0.5c-0.2,0-0.3,0.1-0.4,0.1
			c-0.7-3.1-1-4.7-1.5-7.9C272,477.2,272.4,477.2,273.2,477z"/>
		<path class="st0" d="M278.9,471.2c0.1,0.5,0.1,1,0,1.5c-0.1,0.5-0.2,0.9-0.3,1.2c0.2,0.1,0.3,0.2,0.5,0.4c0,0.2,0,0.3,0.1,0.5
			c-1.2,0.2-1.8,0.3-3,0.5c0-0.2,0-0.3-0.1-0.5c0.3-0.2,0.5-0.4,0.8-0.6c0.3-0.2,0.5-0.5,0.8-0.7c0.2-0.3,0.4-0.6,0.5-0.9
			c0.1-0.3,0.2-0.7,0.1-1.1c-0.1-0.5-0.2-0.9-0.5-1.2c-0.3-0.3-0.6-0.4-1-0.3c-0.3,0-0.6,0.2-0.8,0.5c-0.2,0.3-0.3,0.7-0.4,1.2
			c-0.1,0.4-0.1,0.7-0.2,1c-0.1,0.3-0.1,0.6-0.2,0.8c-0.1,0.6-0.4,1.1-0.8,1.4c-0.4,0.3-0.8,0.6-1.3,0.6c-0.3,0-0.6,0-1-0.1
			c-0.3-0.1-0.6-0.3-0.9-0.5c-0.3-0.2-0.5-0.6-0.7-1c-0.2-0.4-0.3-0.9-0.4-1.4c-0.1-0.5-0.1-1,0-1.4c0.1-0.4,0.2-0.8,0.3-1.1
			c-0.2-0.1-0.2-0.2-0.4-0.3c0-0.2,0-0.3-0.1-0.6c1.1-0.1,1.7-0.2,2.8-0.3c0,0.2,0,0.3,0.1,0.5c-0.3,0.2-0.6,0.3-0.9,0.5
			c-0.3,0.2-0.5,0.4-0.7,0.6c-0.2,0.2-0.4,0.5-0.5,0.8c-0.1,0.3-0.1,0.6-0.1,1c0.1,0.5,0.2,0.8,0.5,1.1c0.3,0.3,0.6,0.4,0.9,0.3
			c0.3,0,0.6-0.2,0.8-0.5c0.2-0.3,0.3-0.7,0.4-1.2c0.1-0.3,0.1-0.6,0.2-1c0.1-0.3,0.1-0.6,0.2-0.9c0.2-0.6,0.4-1.1,0.8-1.5
			c0.4-0.3,0.8-0.5,1.4-0.6c0.4,0,0.7,0,1.1,0.2c0.4,0.1,0.7,0.3,0.9,0.6c0.3,0.3,0.5,0.6,0.7,1S278.8,470.6,278.9,471.2z"/>
		<path class="st0" d="M271.8,459.1c0,0.2,0,0.3,0,0.5c-0.4,0.1-0.7,0.4-1.1,0.7c-0.4,0.3-0.6,0.6-0.6,0.8c0,0.1,0,0.3,0,0.5
			c0,0.2,0,0.4,0,0.5c0,0.1,0,0.2,0,0.3c2.6-0.1,3.9-0.2,6.5-0.4c0.1,0,0.3,0,0.4-0.1c0.1-0.1,0.2-0.2,0.2-0.3
			c0-0.1,0.1-0.2,0.1-0.4c0-0.2,0-0.4,0.1-0.5c0.2,0,0.3,0,0.5,0c0.1,1.9,0.2,2.8,0.3,4.7c-0.2,0-0.3,0-0.5,0c0-0.1-0.1-0.3-0.1-0.5
			c0-0.2-0.1-0.3-0.1-0.4c-0.1-0.2-0.2-0.2-0.3-0.3c-0.1,0-0.2-0.1-0.4-0.1c-2.6,0.2-3.9,0.3-6.6,0.5c0,0.1,0,0.2,0,0.3
			c0,0.1,0,0.3,0.1,0.5c0,0.2,0.1,0.4,0.1,0.5c0,0.2,0.3,0.5,0.7,0.7c0.4,0.3,0.8,0.4,1.2,0.5c0,0.2,0,0.3,0,0.5
			c-0.9,0.1-1.4,0.1-2.4,0.2c-0.3-3.5-0.4-5.2-0.6-8.7C270.3,459.2,270.8,459.2,271.8,459.1z"/>
		<path class="st0" d="M277.7,448.6c-0.1,1.3-0.1,2-0.1,3.3c-0.9,0.6-1.5,1-2,1.4c-0.5,0.4-1.1,0.9-1.7,1.4c0,0.1,0,0.2,0,0.3
			c1,0,1.5,0,2.5,0c0.1,0,0.3,0,0.4-0.1c0.1-0.1,0.2-0.2,0.2-0.3c0-0.1,0.1-0.2,0.1-0.4c0-0.2,0.1-0.3,0.1-0.4c0.2,0,0.3,0,0.5,0
			c0,1.8,0,2.7,0.1,4.6c-0.2,0-0.3,0-0.5,0c0-0.1,0-0.3-0.1-0.5c0-0.2-0.1-0.3-0.1-0.4c-0.1-0.2-0.1-0.3-0.2-0.3
			c-0.1-0.1-0.2-0.1-0.4-0.1c-2.3,0.1-3.5,0.1-5.9,0.1c-0.1,0-0.3,0-0.3,0.1c-0.1,0-0.2,0.2-0.2,0.3c0,0.1-0.1,0.3-0.1,0.5
			c0,0.2-0.1,0.3-0.1,0.4c-0.2,0-0.3,0-0.5,0c-0.1-2-0.1-3-0.1-5.1c0-1.1,0.2-2,0.5-2.6c0.3-0.6,0.8-0.9,1.5-0.8
			c0.6,0,1,0.2,1.4,0.6s0.6,0.9,0.8,1.6c0.3-0.3,0.8-0.6,1.2-1c0.5-0.4,0.9-0.7,1.4-1.1c0.2-0.1,0.3-0.3,0.6-0.5
			c0.2-0.2,0.4-0.4,0.4-0.6c0-0.1,0.1-0.2,0.1-0.4c0-0.1,0-0.2,0-0.3C277.4,448.6,277.5,448.6,277.7,448.6z M271.4,452.7
			c-0.6,0-1,0.2-1.2,0.5s-0.4,0.8-0.4,1.4c0,0.2,0,0.3,0,0.5c1.4,0,2.1,0,3.5,0c0-0.2,0-0.3,0-0.5c0-0.6-0.1-1.1-0.4-1.4
			C272.6,452.8,272.1,452.7,271.4,452.7z"/>
		<path class="st0" d="M278.4,439.3c-0.2,1.9-0.3,2.8-0.4,4.7c-0.2,0-0.3,0-0.5,0c0-0.2,0-0.5-0.1-0.8c0-0.3-0.1-0.5-0.2-0.5
			c0,0-0.1,0-0.1,0s-0.1,0-0.2,0c-0.7,0.2-1.1,0.4-1.8,0.6c-0.1,1.2-0.1,1.8-0.2,3c0.2,0.1,0.3,0.2,0.5,0.3c0.2,0.1,0.4,0.2,0.6,0.2
			c0.2,0.1,0.4,0.1,0.5,0.2c0.1,0,0.2,0,0.2,0c0.1,0,0.2-0.1,0.3-0.3c0.1-0.2,0.2-0.5,0.2-1c0.2,0,0.3,0,0.5,0
			c-0.1,1.4-0.1,2.1-0.2,3.5c-0.2,0-0.3,0-0.5,0c0-0.1,0-0.3,0-0.5c0-0.2-0.1-0.3-0.1-0.4c-0.1-0.2-0.2-0.3-0.3-0.4
			c-0.1-0.1-0.3-0.2-0.5-0.3c-1.1-0.5-2.1-1.1-3.2-1.6c-1.1-0.5-2.3-1.2-3.5-1.9c0-0.5,0.1-0.8,0.1-1.3c1.9-0.7,3.5-1.2,4.6-1.6
			c1.1-0.4,2.1-0.7,2.8-0.9c0.1,0,0.2-0.1,0.3-0.2c0.1-0.1,0.2-0.2,0.3-0.3c0.1-0.1,0.1-0.2,0.2-0.4c0-0.1,0.1-0.3,0.1-0.4
			C278.1,439.3,278.2,439.3,278.4,439.3z M274.6,443.6c-1.2,0.4-1.9,0.6-3.1,1.1c1.2,0.6,1.7,0.9,2.9,1.4
			C274.5,445.1,274.6,444.6,274.6,443.6z"/>
	</g>
</g>
<g>
	<g>
		<path class="st0" d="M582.9,324.1c-1.6-1.4-2.4-2.1-4-3.5c0.1-0.1,0.2-0.2,0.3-0.4c0.1,0.1,0.3,0.2,0.5,0.3
			c0.2,0.1,0.3,0.2,0.4,0.2c0.2,0.1,0.3,0.1,0.4,0.1c0.1,0,0.2-0.1,0.3-0.2c1.6-1.9,2.4-2.8,4-4.7c-3,1.3-4.4,2-7.3,3.4
			c-0.3-0.2-0.4-0.3-0.7-0.5c0-0.1,0.1-0.4,0.2-0.8c0.1-0.4,0.2-0.7,0.3-1c0.6-2.4,0.9-3.6,1.4-6.1c-1.2,1.6-1.8,2.4-3,4
			c-0.3,0.4-0.5,0.7-0.6,1c-0.1,0.2-0.1,0.5,0,0.7c0,0.1,0.2,0.3,0.4,0.6c0.2,0.2,0.3,0.4,0.4,0.5c-0.1,0.1-0.2,0.2-0.3,0.4
			c-1.3-1-2-1.5-3.4-2.5c0.1-0.1,0.2-0.2,0.3-0.4c0.1,0.1,0.3,0.1,0.5,0.3c0.2,0.1,0.5,0.2,0.6,0.2c0.2,0,0.4-0.1,0.6-0.2
			c0.2-0.2,0.5-0.4,0.7-0.8c1-1.3,1.5-2,2.4-3.3c0.1-0.2,0.2-0.4,0.3-0.6s0-0.4,0-0.5c-0.1-0.2-0.2-0.4-0.3-0.5s-0.3-0.3-0.5-0.4
			c0.1-0.1,0.2-0.2,0.3-0.4c1.6,1.1,2.3,1.7,3.9,2.9c-0.5,2.4-0.8,3.5-1.4,5.9c1.8-0.9,2.7-1.3,4.5-2.1c0.2-0.1,0.3-0.2,0.5-0.3
			c0.2-0.1,0.3-0.2,0.4-0.3c1.4,1.2,2.1,1.8,3.5,3c-0.1,0.1-0.2,0.2-0.3,0.3c-0.1-0.1-0.3-0.2-0.4-0.3c-0.1-0.1-0.3-0.2-0.4-0.3
			c-0.2-0.1-0.3-0.1-0.4-0.1c-0.1,0-0.2,0.1-0.3,0.2c-1.6,1.8-2.3,2.6-3.9,4.4c-0.1,0.1-0.2,0.2-0.2,0.3c0,0.1,0,0.3,0.1,0.4
			c0,0.1,0.1,0.2,0.3,0.4c0.1,0.2,0.2,0.3,0.3,0.4C583.1,323.9,583.1,324,582.9,324.1z"/>
		<path class="st0" d="M595.4,326.1c0.1,0.6,0,1.2-0.2,1.8c-0.2,0.6-0.5,1.1-1.1,1.5c-0.4,0.4-1,0.7-1.5,0.9
			c-0.6,0.2-1.2,0.3-1.7,0.2c-0.6-0.1-1.2-0.3-1.8-0.6c-0.6-0.3-1.2-0.8-1.8-1.4c-0.5-0.5-0.9-1-1.2-1.6s-0.5-1.2-0.6-1.8
			c-0.1-0.6-0.1-1.2,0.1-1.8c0.2-0.6,0.5-1.1,0.9-1.6c0.5-0.5,1-0.9,1.6-1.1c0.6-0.2,1.2-0.3,1.8-0.2c0.6,0.1,1.3,0.3,1.9,0.6
			c0.6,0.3,1.2,0.8,1.8,1.3c0.5,0.6,1,1.1,1.3,1.8S595.4,325.5,595.4,326.1z M589.9,328.8c0.4-0.1,0.8-0.3,1.2-0.5
			c0.4-0.2,0.8-0.6,1.2-0.9c0.3-0.3,0.7-0.7,0.9-1.1c0.3-0.4,0.5-0.8,0.6-1.1c0.1-0.4,0.1-0.8,0-1.2c-0.1-0.4-0.3-0.8-0.7-1.1
			c-0.6-0.6-1.3-0.9-2.1-0.7c-0.8,0.2-1.6,0.7-2.5,1.6c-0.4,0.4-0.7,0.8-0.9,1.2s-0.4,0.8-0.5,1.2c-0.1,0.4-0.1,0.8,0,1.1
			c0.1,0.4,0.3,0.7,0.6,1c0.3,0.3,0.7,0.5,1,0.6C589.1,328.9,589.5,328.9,589.9,328.8z"/>
		<path class="st0" d="M603.2,335.2c0.1,0.7,0.1,1.4-0.1,2c-0.2,0.6-0.6,1.2-1.3,1.7c-0.6,0.4-1.2,0.6-1.8,0.7c-0.6,0-1.2,0-1.8-0.3
			c-0.6-0.2-1.2-0.6-1.7-1s-1.1-1-1.6-1.6c-1.2-1.5-1.9-2.3-3.2-3.7c0.1-0.1,0.2-0.2,0.3-0.3c0.1,0.1,0.2,0.2,0.4,0.4
			c0.2,0.2,0.3,0.2,0.3,0.3c0.2,0.1,0.3,0.1,0.4,0.1c0.1,0,0.2-0.1,0.3-0.2c1.8-1.5,2.7-2.3,4.5-3.9c0.1-0.1,0.2-0.2,0.2-0.3
			s0-0.3,0-0.5c-0.1-0.2-0.2-0.4-0.3-0.5c-0.1-0.2-0.2-0.3-0.3-0.4c0.1-0.1,0.2-0.2,0.3-0.3c1.5,1.7,2.2,2.5,3.6,4.2
			c0.4,0.5,0.7,1,1,1.6C602.9,333.8,603.1,334.5,603.2,335.2z M597.6,337.7c0.4,0,0.8-0.1,1.2-0.3c0.4-0.2,0.8-0.4,1.3-0.8
			c0.4-0.3,0.8-0.7,1.1-1.1c0.3-0.4,0.4-0.8,0.5-1.2c0.1-0.4,0.1-0.8-0.1-1.3c-0.1-0.4-0.4-0.9-0.7-1.3c-0.1-0.1-0.2-0.3-0.4-0.4
			c-0.1-0.2-0.2-0.3-0.3-0.4c-1.9,1.6-2.9,2.4-4.9,4c-0.1,0.1-0.2,0.2-0.2,0.3c-0.1,0.1-0.1,0.2-0.1,0.4c0,0.1,0,0.3,0.1,0.4
			c0.1,0.1,0.2,0.3,0.3,0.5c0.3,0.4,0.7,0.7,1,0.9S597.2,337.7,597.6,337.7z"/>
		<path class="st0" d="M609.1,345.9c-0.1-0.2-0.2-0.3-0.3-0.5c0.2-0.3,0.3-0.7,0.4-1.1c0.1-0.5,0.1-0.9-0.1-1.2
			c-0.1-0.1-0.2-0.3-0.3-0.5c-0.1-0.2-0.3-0.4-0.3-0.5c-0.3-0.5-0.5-0.8-0.8-1.2c-1.1,0.7-1.6,1.1-2.7,1.8c0.2,0.3,0.3,0.5,0.6,0.9
			c0.1,0.2,0.3,0.4,0.5,0.6c0.2,0.2,0.3,0.3,0.6,0.3c0.1,0,0.3,0,0.6,0c0.3,0,0.5-0.1,0.6-0.1c0.1,0.2,0.2,0.3,0.3,0.5
			c-1.2,0.7-1.8,1.1-2.9,1.9c-0.1-0.2-0.2-0.3-0.3-0.4c0.1-0.1,0.3-0.3,0.4-0.5s0.2-0.4,0.3-0.6c0-0.2,0-0.4-0.1-0.6
			s-0.2-0.4-0.3-0.7c-0.2-0.3-0.3-0.5-0.6-0.9c-0.8,0.5-1.2,0.8-2,1.3c-0.2,0.1-0.4,0.3-0.5,0.4c-0.1,0.1-0.1,0.2-0.1,0.4
			c0,0.1,0,0.3,0.1,0.5c0.1,0.2,0.2,0.4,0.4,0.7c0.1,0.1,0.2,0.3,0.3,0.5s0.2,0.3,0.4,0.5c0.1,0.1,0.2,0.3,0.4,0.4s0.2,0.2,0.3,0.2
			c0.3,0.1,0.7,0.1,1.1,0.2c0.5,0,0.8,0,1,0c0.1,0.2,0.2,0.3,0.3,0.4c-0.9,0.5-1.4,0.7-2.3,1.2c-1.9-3.1-2.9-4.6-5.1-7.6
			c0.1-0.1,0.2-0.2,0.4-0.3c0.1,0.1,0.2,0.2,0.3,0.4c0.1,0.2,0.3,0.3,0.3,0.3c0.2,0.1,0.3,0.2,0.4,0.1s0.2-0.1,0.4-0.1
			c1.9-1.4,2.9-2,4.8-3.4c0.1-0.1,0.2-0.2,0.2-0.3c0-0.1,0-0.2,0-0.5c0-0.1-0.1-0.3-0.2-0.5c-0.1-0.2-0.2-0.4-0.2-0.5
			c0.1-0.1,0.2-0.2,0.4-0.3c2.2,3,3.2,4.5,5.1,7.6C610.2,345.3,609.8,345.5,609.1,345.9z"/>
		<path class="st0" d="M609.9,360.3c-0.6-1.3-1-2-1.7-3.3c0.5-1,0.8-1.8,1-2.4c0.2-0.6,0.5-1.4,0.7-2.3c-0.1-0.1-0.1-0.2-0.2-0.3
			c-0.9,0.5-1.3,0.7-2.2,1.2c-0.1,0.1-0.2,0.2-0.3,0.3c-0.1,0.1-0.1,0.2,0,0.4c0,0.1,0.1,0.2,0.1,0.4c0.1,0.2,0.1,0.3,0.2,0.5
			c-0.2,0.1-0.2,0.1-0.4,0.2c-1-1.8-1.5-2.7-2.6-4.5c0.2-0.1,0.2-0.1,0.4-0.2c0.1,0.1,0.2,0.2,0.3,0.4c0.1,0.2,0.2,0.3,0.3,0.4
			c0.1,0.1,0.3,0.2,0.4,0.2c0.1,0,0.2,0,0.4-0.1c2-1.2,3-1.8,5.1-3c0.1-0.1,0.2-0.2,0.3-0.2s0.1-0.2,0-0.5c0-0.2-0.1-0.3-0.2-0.5
			c-0.1-0.2-0.1-0.4-0.2-0.5c0.2-0.1,0.2-0.1,0.4-0.2c1.2,2,1.8,3,2.9,5.1c0.6,1.1,0.9,2.1,0.9,2.9c0,0.7-0.3,1.3-0.9,1.6
			c-0.5,0.3-1,0.3-1.5,0.1c-0.5-0.2-1-0.6-1.6-1.3c-0.2,0.4-0.3,1-0.5,1.5s-0.4,1.2-0.6,1.8c-0.1,0.2-0.2,0.5-0.2,0.8
			c-0.1,0.3-0.1,0.6-0.1,0.8c0,0.1,0.1,0.2,0.1,0.4c0.1,0.2,0.1,0.3,0.1,0.3C610.1,360.2,610.1,360.2,609.9,360.3z M613.3,353.2
			c0.5-0.3,0.8-0.6,0.8-1.1c0-0.5-0.1-1-0.5-1.6c-0.1-0.2-0.2-0.3-0.3-0.5c-1.2,0.7-1.8,1-3,1.7c0.1,0.2,0.2,0.3,0.3,0.5
			c0.3,0.6,0.7,1,1.2,1.2C612.2,353.6,612.7,353.5,613.3,353.2z"/>
		<path class="st0" d="M621.7,367.9c-0.1-0.1-0.1-0.3-0.3-0.5c-0.1-0.2-0.3-0.4-0.5-0.6c-0.2-0.1-0.4-0.2-0.6-0.2s-0.6,0.1-1.1,0.3
			c-2.2,0.9-3.3,1.3-5.5,2.1c-0.2-0.5-0.3-0.7-0.4-1.1c1.5-3.2,2.2-4.9,3.5-8.3c-1.4,0.6-2.1,1-3.5,1.6c-0.4,0.2-0.8,0.4-1,0.6
			c-0.2,0.2-0.3,0.4-0.4,0.6c0,0.1,0,0.4,0,0.6c0.1,0.3,0.1,0.5,0.1,0.6c-0.2,0.1-0.3,0.1-0.4,0.2c-0.7-1.5-1-2.3-1.8-3.8
			c0.2-0.1,0.2-0.1,0.4-0.2c0.1,0.2,0.2,0.3,0.3,0.5c0.1,0.2,0.3,0.3,0.4,0.4c0.2,0.1,0.4,0.2,0.6,0.1c0.2,0,0.6-0.2,1.1-0.4
			c1.4-0.7,2.1-1,3.6-1.7c0.2-0.1,0.3-0.2,0.5-0.3c0.1-0.1,0.2-0.3,0.3-0.5c0-0.2,0.1-0.4,0-0.7s-0.1-0.5-0.2-0.8
			c0.2-0.1,0.3-0.1,0.4-0.2c0.7,1.4,1,2.1,1.7,3.6c-1.1,3-1.7,4.5-3,7.3c1.2-0.5,1.8-0.7,2.9-1.1c0.5-0.2,0.8-0.4,1-0.5
			s0.3-0.4,0.4-0.6c0-0.2,0-0.4,0-0.7c0-0.3-0.1-0.5-0.1-0.7c0.2-0.1,0.3-0.1,0.4-0.2c0.7,1.7,1,2.5,1.6,4.2
			C621.9,367.8,621.8,367.9,621.7,367.9z"/>
		<path class="st0" d="M565.5,319.3c0.2,0.6,0.2,1.1,0.1,1.7s-0.3,1.2-0.7,1.7c-0.3,0.5-0.8,0.9-1.3,1.2c-0.5,0.3-1,0.5-1.6,0.6
			c-0.6,0.1-1.2,0.1-1.8,0c-0.6-0.1-1.2-0.4-1.9-0.8c-0.5-0.3-1-0.7-1.4-1.2c-0.4-0.5-0.7-1-0.8-1.5c-0.2-0.5-0.3-1.1-0.2-1.7
			c0-0.6,0.2-1.2,0.5-1.7c0.3-0.6,0.7-1.1,1.2-1.4c0.5-0.4,1-0.6,1.6-0.7c0.6-0.1,1.2-0.1,1.8,0.1s1.3,0.4,1.9,0.8
			c0.6,0.4,1.1,0.8,1.5,1.3C565,318.2,565.3,318.7,565.5,319.3z M560.8,323.3c0.3-0.2,0.7-0.5,1-0.8c0.3-0.3,0.6-0.7,0.9-1.2
			c0.3-0.4,0.5-0.8,0.7-1.2c0.2-0.4,0.3-0.8,0.3-1.2c0-0.4,0-0.8-0.2-1.1s-0.4-0.6-0.8-0.9c-0.7-0.4-1.4-0.4-2.1-0.1s-1.4,1.1-2,2.1
			c-0.3,0.4-0.5,0.9-0.6,1.3c-0.2,0.4-0.3,0.9-0.3,1.2c0,0.4,0,0.7,0.2,1.1c0.1,0.3,0.4,0.6,0.7,0.8c0.3,0.2,0.7,0.3,1,0.3
			C560.1,323.6,560.5,323.5,560.8,323.3z"/>
		<path class="st0" d="M571,332.7c-1-0.9-1.5-1.3-2.5-2.1c0.1-1,0.1-1.8,0.1-2.5c0-0.6,0-1.4-0.1-2.3c-0.1-0.1-0.2-0.1-0.3-0.2
			c-0.6,0.8-0.9,1.2-1.5,2c-0.1,0.1-0.1,0.2-0.1,0.3c0,0.1,0,0.2,0.1,0.4c0,0.1,0.1,0.2,0.2,0.3c0.1,0.1,0.2,0.2,0.3,0.3
			c-0.1,0.1-0.2,0.2-0.3,0.4c-1.4-1.1-2.2-1.7-3.7-2.7c0.1-0.1,0.2-0.2,0.3-0.4c0.1,0.1,0.2,0.1,0.4,0.2c0.2,0.1,0.3,0.2,0.4,0.2
			c0.2,0,0.3,0,0.4,0c0.1,0,0.2-0.1,0.3-0.3c1.4-1.9,2.1-2.9,3.4-4.8c0.1-0.1,0.1-0.2,0.1-0.3c0-0.1,0-0.2-0.1-0.4
			c-0.1-0.1-0.2-0.3-0.3-0.4c-0.1-0.1-0.2-0.2-0.3-0.3c0.1-0.1,0.2-0.2,0.3-0.4c1.7,1.2,2.5,1.8,4.2,3.1c0.9,0.7,1.5,1.4,1.8,2
			s0.2,1.2-0.2,1.7c-0.4,0.4-0.8,0.7-1.3,0.7c-0.5,0-1.1-0.1-1.8-0.4c0,0.4,0,1,0,1.6c0,0.6,0,1.2,0,1.8c0,0.2,0,0.5,0,0.8
			c0,0.3,0.1,0.5,0.2,0.7c0.1,0.1,0.1,0.2,0.2,0.3c0.1,0.1,0.2,0.2,0.2,0.2C571.1,332.5,571.1,332.6,571,332.7z M571.6,325.3
			c0.3-0.4,0.5-0.9,0.3-1.3c-0.1-0.4-0.4-0.8-0.9-1.2c-0.2-0.1-0.2-0.2-0.4-0.3c-0.8,1.1-1.3,1.7-2.1,2.8c0.2,0.1,0.2,0.2,0.4,0.3
			c0.5,0.4,1,0.5,1.4,0.5C570.8,326,571.2,325.8,571.6,325.3z"/>
		<path class="st0" d="M574.2,335.9c-0.5-0.4-0.8-0.9-1.1-1.4c-0.3-0.5-0.4-1-0.5-1.6c-0.1-0.5,0-1.1,0.2-1.7
			c0.2-0.6,0.5-1.1,0.9-1.6c0.4-0.5,0.9-0.9,1.4-1.1c0.5-0.3,1.1-0.4,1.7-0.4c0.6,0,1.2,0.1,1.8,0.4c0.6,0.3,1.2,0.6,1.7,1.1
			c0.4,0.4,0.7,0.7,0.9,1.1c0.2,0.4,0.4,0.7,0.5,1c0.2,0,0.3,0,0.5,0.1c0.2,0.2,0.2,0.2,0.4,0.4c-0.8,0.9-1.3,1.3-2.1,2.2
			c-0.2-0.2-0.2-0.2-0.4-0.4c0.4-0.9,0.6-1.6,0.6-2.3c0-0.6-0.3-1.2-0.7-1.6c-0.6-0.6-1.3-0.7-2-0.5c-0.7,0.2-1.5,0.7-2.3,1.6
			c-0.4,0.5-0.8,1-1,1.4c-0.2,0.4-0.3,0.8-0.4,1.2c0,0.4,0,0.7,0.2,1c0.1,0.3,0.3,0.6,0.6,0.9c0.4,0.4,0.9,0.6,1.4,0.7
			c0.5,0.1,1.1,0.1,1.8-0.1c0.1,0.2,0.1,0.4,0.2,0.6c-0.4,0.1-0.7,0.2-1.1,0.2c-0.3,0-0.7,0-1,0c-0.4-0.1-0.7-0.2-1.1-0.4
			C574.9,336.5,574.5,336.3,574.2,335.9z"/>
		<path class="st0" d="M584.3,346.5c-1.2-1.4-1.7-2.1-3-3.5c0.1-0.1,0.2-0.2,0.3-0.3c0.1,0.1,0.2,0.2,0.3,0.3
			c0.1,0.1,0.2,0.2,0.3,0.3c0.1,0.1,0.3,0.1,0.4,0.1c0.1,0,0.2-0.1,0.3-0.2c0.9-0.7,1.3-1.1,2.2-1.9c-1-1.1-1.5-1.7-2.5-2.8
			c-0.8,0.8-1.2,1.1-2.1,1.9c-0.1,0.1-0.2,0.2-0.2,0.3c0,0.1,0,0.2,0,0.4c0,0.1,0.1,0.2,0.2,0.4c0.1,0.2,0.2,0.3,0.3,0.4
			c-0.1,0.1-0.2,0.2-0.3,0.3c-1.2-1.4-1.9-2-3.2-3.4c0.1-0.1,0.2-0.2,0.3-0.3c0.1,0.1,0.2,0.2,0.3,0.3c0.2,0.1,0.3,0.2,0.4,0.3
			c0.1,0.1,0.3,0.1,0.4,0.1c0.1,0,0.2-0.1,0.3-0.2c1.7-1.6,2.5-2.4,4.2-4.1c0.1-0.1,0.2-0.2,0.2-0.3s0-0.2-0.1-0.4
			c0-0.1-0.1-0.3-0.2-0.4s-0.2-0.3-0.3-0.4c0.1-0.1,0.2-0.2,0.3-0.3c1.4,1.4,2.1,2.1,3.4,3.6c-0.1,0.1-0.2,0.2-0.3,0.3
			c-0.1-0.1-0.2-0.2-0.4-0.3s-0.3-0.2-0.4-0.3c-0.2-0.1-0.3-0.1-0.4-0.1c-0.1,0-0.2,0.1-0.3,0.2c-0.7,0.7-1.1,1-1.8,1.7
			c1,1.1,1.5,1.7,2.5,2.8c0.7-0.6,1.1-0.9,1.8-1.6c0.1-0.1,0.2-0.2,0.2-0.3c0-0.1,0-0.2,0-0.4c0-0.1-0.1-0.3-0.2-0.4
			c-0.1-0.2-0.2-0.3-0.2-0.4c0.1-0.1,0.2-0.2,0.3-0.3c1.3,1.5,2,2.3,3.2,3.8c-0.1,0.1-0.2,0.2-0.4,0.3c-0.1-0.1-0.2-0.2-0.3-0.3
			c-0.1-0.1-0.3-0.2-0.4-0.3c-0.1-0.1-0.3-0.1-0.4-0.1c-0.1,0-0.2,0.1-0.3,0.2c-1.8,1.5-2.7,2.2-4.5,3.7c-0.1,0.1-0.2,0.2-0.2,0.3
			c0,0.1,0,0.2,0,0.4c0,0.1,0.1,0.2,0.2,0.4c0.1,0.2,0.2,0.3,0.2,0.4C584.5,346.4,584.5,346.4,584.3,346.5z"/>
		<path class="st0" d="M594.4,349.8c-0.1-0.2-0.2-0.2-0.3-0.4c0.2-0.3,0.3-0.6,0.4-1.1c0.1-0.4,0.1-0.8-0.1-1.1
			c-0.1-0.1-0.1-0.3-0.3-0.5s-0.2-0.3-0.3-0.5c-0.3-0.4-0.5-0.6-0.8-1.1c-1,0.8-1.5,1.1-2.6,1.9c0.2,0.3,0.3,0.4,0.5,0.7
			c0.1,0.2,0.3,0.3,0.4,0.5c0.2,0.1,0.3,0.2,0.5,0.2c0.1,0,0.3,0,0.6,0c0.2,0,0.4-0.1,0.6-0.2c0.1,0.2,0.2,0.2,0.3,0.4
			c-1.1,0.8-1.7,1.2-2.8,2c-0.1-0.2-0.2-0.2-0.3-0.4c0.1-0.1,0.3-0.3,0.4-0.5c0.1-0.2,0.2-0.4,0.3-0.5c0-0.2,0-0.4,0-0.6
			c-0.1-0.2-0.2-0.4-0.3-0.6c-0.2-0.3-0.3-0.4-0.5-0.7c-0.8,0.6-1.2,0.9-1.9,1.4c-0.2,0.1-0.3,0.3-0.4,0.4c-0.1,0.1-0.1,0.2-0.1,0.4
			c0,0.1,0,0.3,0.1,0.4c0.1,0.2,0.2,0.4,0.4,0.6c0.1,0.1,0.2,0.3,0.3,0.4c0.1,0.2,0.2,0.3,0.3,0.4c0.1,0.1,0.2,0.2,0.3,0.3
			c0.1,0.1,0.2,0.2,0.3,0.2c0.3,0.1,0.6,0.1,1.1,0s0.8-0.1,1-0.1c0.1,0.1,0.2,0.2,0.3,0.4c-0.9,0.5-1.3,0.8-2.2,1.3
			c-1.8-2.7-2.7-3.9-4.7-6.5c0.1-0.1,0.2-0.2,0.4-0.3c0.1,0.1,0.2,0.2,0.3,0.3s0.2,0.2,0.3,0.3c0.1,0.1,0.3,0.1,0.4,0.1
			c0.1,0,0.2-0.1,0.3-0.2c1.9-1.4,2.8-2.1,4.6-3.6c0.1-0.1,0.2-0.2,0.2-0.3s0-0.2,0-0.4c0-0.1-0.1-0.3-0.2-0.5
			c-0.1-0.2-0.2-0.3-0.2-0.4c0.1-0.1,0.2-0.2,0.4-0.3c2,2.6,3,3.9,4.8,6.6C595.5,349.1,595.1,349.3,594.4,349.8z"/>
		<path class="st0" d="M591.7,357.5c-0.3-0.4-0.5-0.9-0.6-1.3s-0.2-0.9-0.2-1.2c-0.2-0.1-0.3-0.1-0.6-0.1c-0.1-0.2-0.2-0.3-0.3-0.4
			c1-0.7,1.5-1,2.5-1.7c0.1,0.2,0.2,0.3,0.3,0.4c-0.2,0.3-0.3,0.5-0.5,0.9c-0.2,0.3-0.3,0.7-0.4,1c-0.1,0.3-0.1,0.7-0.1,1
			c0,0.3,0.1,0.7,0.4,1c0.3,0.5,0.6,0.8,1,0.9c0.4,0.1,0.7,0.1,1.1-0.1c0.3-0.2,0.5-0.4,0.5-0.7c0.1-0.3,0-0.8-0.1-1.3
			c-0.1-0.4-0.2-0.7-0.3-1c-0.1-0.3-0.1-0.6-0.2-0.8c-0.1-0.6-0.1-1.2,0.1-1.6c0.2-0.5,0.5-0.8,0.9-1.1c0.3-0.2,0.6-0.3,0.9-0.3
			c0.3,0,0.7,0,1,0.1c0.3,0.1,0.7,0.3,1,0.6c0.4,0.3,0.7,0.7,0.9,1.1c0.3,0.4,0.5,0.9,0.6,1.3c0.1,0.4,0.2,0.8,0.2,1.1
			c0.2,0.1,0.3,0.1,0.5,0.2c0.1,0.2,0.2,0.3,0.3,0.5c-1,0.6-1.5,0.9-2.4,1.5c-0.1-0.2-0.2-0.3-0.3-0.5c0.2-0.3,0.4-0.5,0.6-0.9
			c0.2-0.3,0.3-0.6,0.4-0.9c0.1-0.3,0.1-0.6,0.1-0.9c0-0.3-0.1-0.6-0.3-0.9c-0.2-0.4-0.5-0.7-0.9-0.8c-0.4-0.1-0.7-0.1-1,0.1
			c-0.3,0.2-0.4,0.4-0.5,0.8c0,0.3,0,0.8,0.1,1.3c0.1,0.3,0.2,0.6,0.2,1c0.1,0.3,0.1,0.6,0.2,0.9c0.1,0.6,0.1,1.2-0.1,1.6
			c-0.2,0.5-0.5,0.8-1,1.1c-0.3,0.2-0.7,0.3-1,0.3c-0.4,0-0.7-0.1-1.1-0.2c-0.4-0.2-0.7-0.4-1.1-0.7
			C592.3,358.3,592,358,591.7,357.5z"/>
		<path class="st0" d="M603.1,365.8c-0.1-0.2-0.1-0.3-0.2-0.5c0.3-0.3,0.5-0.6,0.8-1.1c0.2-0.4,0.3-0.8,0.2-1c0-0.1-0.1-0.3-0.2-0.5
			c-0.1-0.2-0.1-0.3-0.2-0.5c-0.1-0.1-0.1-0.2-0.1-0.3c-2.3,1.2-3.5,1.7-5.8,2.9c-0.1,0.1-0.2,0.1-0.3,0.2c-0.1,0.1-0.1,0.2-0.1,0.4
			c0,0.1,0,0.2,0.1,0.4c0.1,0.2,0.1,0.4,0.1,0.5c-0.2,0.1-0.2,0.1-0.4,0.2c-0.8-1.7-1.3-2.6-2.2-4.2c0.2-0.1,0.2-0.1,0.4-0.2
			c0.1,0.1,0.2,0.2,0.3,0.4c0.1,0.2,0.2,0.3,0.3,0.3c0.1,0.1,0.3,0.2,0.4,0.2c0.1,0,0.2,0,0.4-0.1c2.3-1.2,3.5-1.8,5.8-3
			c-0.1-0.1-0.1-0.2-0.1-0.3c-0.1-0.1-0.2-0.3-0.3-0.5c-0.1-0.2-0.2-0.3-0.3-0.4c-0.1-0.2-0.5-0.3-1-0.4c-0.5-0.1-0.9-0.1-1.3,0
			c-0.1-0.2-0.1-0.3-0.2-0.4c0.8-0.5,1.2-0.7,2.1-1.2c1.7,3.1,2.6,4.7,4,8C604.4,365.2,604,365.4,603.1,365.8z"/>
		<path class="st0" d="M601.6,377.9c-0.4-1.3-0.7-1.9-1.1-3.1c0.6-0.8,1-1.5,1.4-2.1c0.3-0.5,0.7-1.2,1.1-2
			c-0.1-0.1-0.1-0.2-0.1-0.3c-0.9,0.4-1.4,0.6-2.3,1c-0.1,0.1-0.2,0.1-0.3,0.2s-0.1,0.2-0.1,0.4c0,0.1,0,0.2,0,0.4
			c0,0.2,0.1,0.3,0.1,0.4c-0.2,0.1-0.3,0.1-0.4,0.2c-0.7-1.7-1-2.5-1.8-4.2c0.2-0.1,0.2-0.1,0.4-0.2c0.1,0.1,0.1,0.2,0.2,0.4
			s0.2,0.3,0.2,0.3c0.1,0.1,0.2,0.2,0.3,0.2s0.2,0,0.4-0.1c2.1-0.9,3.2-1.4,5.4-2.4c0.1-0.1,0.2-0.1,0.3-0.2
			c0.1-0.1,0.1-0.2,0.1-0.4c0-0.1,0-0.3-0.1-0.5s-0.1-0.3-0.1-0.4c0.2-0.1,0.2-0.1,0.4-0.2c0.9,1.9,1.3,2.8,2,4.8
			c0.4,1.1,0.6,2,0.5,2.6c-0.1,0.7-0.5,1.1-1.1,1.4c-0.5,0.2-1,0.2-1.5,0c-0.5-0.2-0.9-0.6-1.4-1.3c-0.2,0.4-0.5,0.8-0.8,1.4
			c-0.3,0.5-0.6,1-0.9,1.6c-0.1,0.2-0.2,0.4-0.4,0.7c-0.1,0.3-0.2,0.5-0.2,0.7c0,0.1,0,0.2,0.1,0.4c0,0.1,0.1,0.2,0.1,0.3
			C601.8,377.8,601.7,377.8,601.6,377.9z M605.9,371.8c0.5-0.2,0.8-0.5,0.9-0.9s0.1-0.9-0.2-1.5c-0.1-0.2-0.1-0.3-0.2-0.5
			c-1.3,0.5-1.9,0.8-3.2,1.3c0.1,0.2,0.1,0.3,0.2,0.4c0.2,0.6,0.5,1,1,1.2C604.8,372,605.3,372,605.9,371.8z"/>
		<path class="st0" d="M604.2,386.9c-0.4-1.8-0.7-2.8-1.2-4.6c0.2-0.1,0.3-0.1,0.4-0.1c0.1,0.2,0.2,0.4,0.3,0.7
			c0.1,0.3,0.3,0.4,0.3,0.4c0,0,0.1,0,0.1,0c0,0,0.1,0,0.1-0.1c0.6-0.5,0.9-0.7,1.5-1.2c-0.3-1.2-0.5-1.8-0.9-2.9
			c-0.2,0-0.4,0-0.6,0c-0.2,0-0.4,0-0.6,0c-0.2,0-0.4,0-0.5,0c-0.1,0-0.2,0-0.2,0c-0.1,0-0.2,0.2-0.2,0.4c0,0.2,0,0.5,0.1,1
			c-0.2,0.1-0.3,0.1-0.4,0.1c-0.4-1.4-0.6-2-1.1-3.4c0.2-0.1,0.3-0.1,0.4-0.2c0.1,0.1,0.1,0.3,0.2,0.4c0.1,0.1,0.2,0.3,0.3,0.3
			c0.1,0.1,0.3,0.2,0.5,0.3c0.2,0.1,0.4,0.1,0.6,0.1c1.2,0.1,2.4,0.2,3.6,0.4c1.2,0.1,2.5,0.3,4,0.5c0.2,0.5,0.2,0.8,0.4,1.3
			c-1.6,1.4-2.8,2.4-3.8,3.1c-0.9,0.7-1.7,1.3-2.3,1.8c-0.1,0.1-0.2,0.2-0.3,0.3c-0.1,0.1-0.1,0.2-0.2,0.4c0,0.1,0,0.3,0,0.4
			c0,0.2,0,0.3,0,0.4C604.5,386.8,604.4,386.9,604.2,386.9z M606.3,381.6c1-0.8,1.5-1.3,2.5-2.1c-1.3-0.2-2-0.2-3.3-0.3
			C605.8,380.1,606,380.6,606.3,381.6z"/>
	</g>
</g>
</svg>
